<svg width="48" height="49" viewBox="0 0 48 49" fill="none" xmlns="http://www.w3.org/2000/svg">
<path d="M29.0105 24.5424C29.0203 23.7861 29.2212 23.0445 29.5947 22.3867C29.9682 21.7289 30.502 21.1763 31.1465 20.7804C30.7369 20.196 30.1968 19.7151 29.569 19.3758C28.9412 19.0365 28.243 18.8481 27.5297 18.8256C26.0081 18.666 24.5297 19.7364 23.7569 19.7364C22.9841 19.7364 21.7733 18.8412 20.4857 18.8676C19.654 18.8943 18.8435 19.1361 18.1331 19.5693C17.4227 20.0025 16.8366 20.6124 16.4321 21.3396C14.6789 24.3732 15.9869 28.8324 17.6657 31.284C18.5057 32.484 19.4873 33.8256 20.7725 33.7788C22.0301 33.7272 22.4993 32.9784 24.0125 32.9784C25.5257 32.9784 25.9565 33.7788 27.2669 33.7488C28.6157 33.7284 29.4653 32.5428 30.2765 31.3308C30.8804 30.4753 31.345 29.5296 31.6529 28.5288C30.8706 28.1962 30.2033 27.641 29.7339 26.9323C29.2645 26.2235 29.0138 25.3925 29.0129 24.5424H29.0105ZM26.5349 17.2128C27.2706 16.3306 27.6331 15.1961 27.5453 14.0508C26.4216 14.1689 25.3836 14.7057 24.6377 15.5544C24.2732 15.969 23.994 16.4514 23.8161 16.974C23.6382 17.4966 23.5651 18.0491 23.6009 18.6C24.1628 18.6053 24.7185 18.4832 25.2265 18.243C25.7344 18.0027 26.1814 17.6505 26.5337 17.2128H26.5349Z" fill="#7C7F88"/>
<circle cx="24" cy="24.8516" r="23.5" stroke="#CCCED1"/>
</svg>
