<svg width="48" height="49" viewBox="0 0 48 49" fill="none" xmlns="http://www.w3.org/2000/svg">
<circle cx="24" cy="24.8516" r="23.5" stroke="#CCCED1"/>
<path d="M17.4961 34.8009C17.7236 34.9488 17.9892 35.0275 18.2605 35.0275C18.5319 35.0275 18.7974 34.9488 19.025 34.8009L30.1094 28.4228L26.9893 25.3027L17.4961 34.8009Z" fill="#7C7F88"/>
<path d="M30.2041 21.879L19.0285 15.5251C18.8115 15.3541 18.5448 15.2581 18.2685 15.2514C17.9922 15.2446 17.7212 15.3276 17.4961 15.4879L27.0457 25.0373L30.2041 21.879Z" fill="#7C7F88"/>
<path d="M17.33 15.6172C17.1536 15.9154 17.0728 16.2604 17.0984 16.606V33.658C17.0986 33.7363 17.1034 33.8145 17.1128 33.8921C17.1194 34.1749 17.2237 34.4467 17.408 34.6613H17.4164L26.8964 25.1812L17.33 15.6172Z" fill="#7C7F88"/>
<path d="M34.6702 24.9245C34.6124 24.7434 34.518 24.576 34.3929 24.4328C34.2678 24.2895 34.1148 24.1734 33.9431 24.0917L30.3322 22.0361L27.2051 25.1633L30.3431 28.3013L33.9431 26.3573C34.6223 25.9685 34.8646 25.4237 34.6702 24.9245Z" fill="#7C7F88"/>
</svg>
