<svg width="149" height="20" viewBox="0 0 149 20" fill="none" xmlns="http://www.w3.org/2000/svg">
<path d="M18.4873 0C17.4368 0 16.6375 0.845339 16.5844 1.89405V2.1947C15.1185 1.03216 13.3548 0.305947 11.4953 0.0992122C9.63577 -0.107522 7.75563 0.213579 6.07014 1.02575C4.38465 1.83792 2.96194 3.10833 1.96492 4.6915C0.967902 6.27468 0.436874 8.10663 0.432643 9.97759C0.428411 11.8485 0.951147 13.6829 1.941 15.2705C2.93084 16.8582 4.34779 18.135 6.02959 18.9548C7.71139 19.7746 9.59006 20.1042 11.4505 19.9059C13.3109 19.7076 15.0779 18.9894 16.5491 17.8335V19.6338H20.2965L20.3389 0.00353698L18.4873 0ZM10.3523 16.1711C9.1289 16.1672 7.9341 15.8009 6.91877 15.1185C5.90344 14.436 5.11311 13.468 4.64761 12.3366C4.18211 11.2053 4.0623 9.96133 4.30333 8.76193C4.54435 7.56252 5.13539 6.46144 6.00181 5.59774C6.86823 4.73404 7.97116 4.14645 9.17131 3.90919C10.3715 3.67193 11.615 3.79564 12.7449 4.26469C13.8748 4.73374 14.8403 5.5271 15.5196 6.54457C16.1989 7.56204 16.5614 8.75798 16.5614 9.98136V10.0326C16.5479 11.6678 15.8879 13.2312 14.7255 14.3813C13.5631 15.5314 11.9928 16.1749 10.3576 16.1711" fill="#00CCFF"/>
<rect x="24.4326" width="123.58" height="19.98" rx="9.99" fill="#054DFF"/>
<path d="M44.8016 16.1566L40.642 3.92242H37.0766L32.917 16.1566H35.9755L36.5872 14.2341H41.1313L41.7431 16.1566H44.8016ZM38.8593 7.12077L40.2924 11.6125H37.4261L38.8593 7.12077Z" fill="white"/>
<path d="M52.4862 8.60635H48.6411V3.92242H45.8448V16.1566H48.6411V11.2979H52.4862V16.1566H55.2825V3.92242H52.4862V8.60635Z" fill="white"/>
<path d="M67.7291 14.5661C68.97 13.3427 69.5817 11.8397 69.5817 10.0395C69.5817 8.23932 68.97 6.73627 67.7291 5.51286C66.4882 4.28944 64.9852 3.67773 63.22 3.67773C61.4548 3.67773 59.9517 4.28944 58.7108 5.51286C57.4699 6.73627 56.8582 8.23932 56.8582 10.0395C56.8582 11.8397 57.4699 13.3427 58.7108 14.5661C59.9517 15.7895 61.4548 16.4012 63.22 16.4012C64.9852 16.4012 66.4882 15.7895 67.7291 14.5661ZM60.6683 12.6611C59.9867 11.9795 59.6546 11.1056 59.6546 10.0395C59.6546 8.97337 59.9867 8.0995 60.6683 7.41789C61.3499 6.73627 62.2063 6.4042 63.22 6.4042C64.2337 6.4042 65.0726 6.73627 65.7542 7.41789C66.4358 8.0995 66.7854 8.97337 66.7854 10.0395C66.7854 11.1056 66.4358 11.9795 65.7542 12.6611C65.0726 13.3427 64.2337 13.6748 63.22 13.6748C62.2063 13.6748 61.3499 13.3427 60.6683 12.6611Z" fill="white"/>
<path d="M80.594 16.1566L77.9898 11.6649C79.3356 10.9658 80.2444 9.60256 80.2444 8.11698C80.2444 6.946 79.8424 5.96727 79.021 5.14583C78.1996 4.3244 77.2208 3.92242 76.0499 3.92242H71.1562V16.1566H73.9526V12.1368H75.2809L77.5879 16.1566H80.594ZM76.0499 6.54402C76.8189 6.54402 77.448 7.22564 77.448 8.11698C77.448 9.00833 76.8189 9.68994 76.0499 9.68994H73.9526V6.54402H76.0499Z" fill="white"/>
<path d="M91.3466 16.1566L88.7425 11.6649C90.0883 10.9658 90.9971 9.60256 90.9971 8.11698C90.9971 6.946 90.5951 5.96727 89.7737 5.14583C88.9522 4.3244 87.9735 3.92242 86.8025 3.92242H81.9089V16.1566H84.7052V12.1368H86.0335L88.3405 16.1566H91.3466ZM86.8025 6.54402C87.5715 6.54402 88.2007 7.22564 88.2007 8.11698C88.2007 9.00833 87.5715 9.68994 86.8025 9.68994H84.7052V6.54402H86.8025Z" fill="white"/>
<path d="M103.497 16.1566L99.3379 3.92242H95.7725L91.6129 16.1566H94.6714L95.2831 14.2341H99.8272L100.439 16.1566H103.497ZM97.5552 7.12077L98.9883 11.6125H96.122L97.5552 7.12077Z" fill="white"/>
<path d="M113.978 3.92242L110.658 9.35787L107.337 3.92242H104.541V16.1566H107.337V9.04328L110.5 14.2341H110.815L113.978 9.04328V16.1566H116.775V3.92242H113.978Z" fill="white"/>
<path d="M129.714 16.1566L125.554 3.92242H121.989L117.829 16.1566H120.887L121.499 14.2341H126.043L126.655 16.1566H129.714ZM123.771 7.12077L125.204 11.6125H122.338L123.771 7.12077Z" fill="white"/>
<path d="M134.783 16.4012C136.128 16.4012 137.229 16.0692 138.068 15.405C138.907 14.7234 139.327 13.8146 139.327 12.6436C139.327 11.6474 138.925 10.8434 138.488 10.3716C138.278 10.1269 137.964 9.89967 137.544 9.68994C137.142 9.46274 136.793 9.30544 136.53 9.21805L135.394 8.85103C134.503 8.58887 133.909 8.34419 133.612 8.11698C133.332 7.88978 133.192 7.62762 133.192 7.3305C133.192 6.82366 133.664 6.4042 134.503 6.4042C135.569 6.4042 136.181 6.89357 136.618 7.81987L138.977 6.43916C138.086 4.63899 136.513 3.67773 134.503 3.67773C133.384 3.67773 132.423 4.0098 131.602 4.69142C130.798 5.37304 130.396 6.26438 130.396 7.40041C130.396 8.51896 130.798 9.39283 131.514 9.96958C132.266 10.5289 132.965 10.8434 133.996 11.1231C134.975 11.3852 135.639 11.6299 135.989 11.8397C136.356 12.0319 136.53 12.3115 136.53 12.6786C136.53 13.3427 135.971 13.6748 134.87 13.6748C133.647 13.6748 132.79 13.1155 132.301 11.9795L129.889 13.3777C130.588 15.2477 132.283 16.4012 134.783 16.4012Z" fill="white"/>
<path d="M124.935 3.39353L126.702 1.97949H123.96L122.742 3.39353H124.935Z" fill="white"/>
</svg>
