<svg width="87" height="20" viewBox="0 0 87 20" fill="none" xmlns="http://www.w3.org/2000/svg">
<path d="M76.9387 0.0229492H34.1217C28.6053 0.0229492 24.1333 4.49492 24.1333 10.0114C24.1333 15.5278 28.6053 19.9998 34.1217 19.9998H76.9387C82.4551 19.9998 86.9271 15.5278 86.9271 10.0114C86.9271 4.49492 82.4551 0.0229492 76.9387 0.0229492Z" fill="#F3008A"/>
<path d="M18.5484 0C17.4979 0 16.6985 0.845339 16.6455 1.89405V2.1947C15.1795 1.03216 13.4158 0.305947 11.5563 0.0992122C9.69681 -0.107522 7.81667 0.213579 6.13118 1.02575C4.44568 1.83792 3.02298 3.10833 2.02596 4.6915C1.02894 6.27468 0.497909 8.10663 0.493678 9.97759C0.489446 11.8485 1.01218 13.6829 2.00203 15.2705C2.99188 16.8582 4.40883 18.135 6.09063 18.9548C7.77243 19.7746 9.65109 20.1042 11.5115 19.9059C13.3719 19.7076 15.1389 18.9894 16.6101 17.8335V19.6338H20.3575L20.4 0.00353698L18.5484 0ZM10.4133 16.1711C9.18993 16.1672 7.99513 15.8009 6.9798 15.1185C5.96447 14.436 5.17415 13.468 4.70865 12.3366C4.24314 11.2053 4.12334 9.96133 4.36436 8.76193C4.60538 7.56252 5.19643 6.46144 6.06284 5.59774C6.92926 4.73404 8.03219 4.14645 9.23235 3.90919C10.4325 3.67193 11.676 3.79564 12.8059 4.26469C13.9358 4.73374 14.9014 5.5271 15.5807 6.54457C16.2599 7.56204 16.6225 8.75798 16.6225 9.98136V10.0326C16.6089 11.6678 15.9489 13.2312 14.7865 14.3813C13.6241 15.5314 12.0538 16.1749 10.4186 16.1711" fill="#00CCFF"/>
<path d="M36.6148 14.5757C35.4193 13.3625 34.8286 11.854 34.8286 10.0519C34.8286 8.24983 35.4193 6.74131 36.6148 5.54581C37.8103 4.35031 39.3365 3.72427 41.1563 3.72427C42.2236 3.71697 43.2746 3.98628 44.2069 4.50594C45.1133 4.99823 45.873 5.72194 46.4087 6.60337L43.7224 8.14549C43.2537 7.29662 42.2828 6.759 41.1563 6.759C40.7215 6.74275 40.2879 6.81582 39.8825 6.97368C39.477 7.13155 39.1082 7.37086 38.7989 7.67684C38.21 8.28343 37.9146 9.06334 37.9146 10.0519C37.9146 11.0405 38.21 11.8381 38.7989 12.4447C39.3878 13.0513 40.1854 13.3449 41.1563 13.3449C42.2828 13.3449 43.2537 12.8249 43.7224 11.9407L46.4087 13.5022C45.3476 15.2867 43.3757 16.3796 41.1563 16.3796C39.3365 16.3796 37.805 15.773 36.6148 14.5757Z" fill="white"/>
<path d="M50.735 13.1204H54.9122V16.1268H47.6313V3.98438H50.735V13.1204Z" fill="white"/>
<path d="M55.7349 3.98438H58.8386V11.8382C58.8386 12.8604 59.4098 13.3627 60.5363 13.3627C61.6628 13.3627 62.2358 12.8604 62.2358 11.8382V3.98438H65.3378V12.1318C65.3378 13.4157 64.8886 14.4308 63.9866 15.2178C63.0847 16.0048 61.9405 16.3797 60.5363 16.3797C59.1321 16.3797 57.972 15.9977 57.0701 15.2178C56.1681 14.4379 55.7349 13.4157 55.7349 12.1318V3.98438Z" fill="white"/>
<path d="M76.5071 12.5651C76.5071 13.6403 76.1428 14.5104 75.3983 15.1489C74.6538 15.7873 73.6634 16.1198 72.4325 16.1198H67.3198V3.98438H72.1036C74.53 3.98438 76.1074 5.3019 76.1074 7.4347C76.1252 7.89691 76.0323 8.35667 75.8363 8.77566C75.6403 9.19465 75.3471 9.56073 74.9809 9.84338C76.0049 10.4517 76.5071 11.3519 76.5071 12.5651ZM70.4218 6.75914V8.66557H72.0134C72.5687 8.66557 73.002 8.31187 73.002 7.71235C73.0057 7.58313 72.9824 7.45455 72.9336 7.33486C72.8847 7.21516 72.8114 7.10699 72.7184 7.01725C72.6253 6.92752 72.5145 6.85821 72.3931 6.81377C72.2717 6.76932 72.1424 6.75071 72.0134 6.75914H70.4218ZM72.3459 13.345C72.4844 13.3547 72.6235 13.3353 72.754 13.2879C72.8845 13.2405 73.0037 13.1662 73.1037 13.0698C73.2037 12.9735 73.2824 12.8572 73.3346 12.7285C73.3869 12.5998 73.4115 12.4616 73.407 12.3228C73.407 11.6985 72.9737 11.3006 72.3459 11.3006H70.4218V13.345H72.3459Z" fill="white"/>
</svg>
