<svg width="87" height="20" viewBox="0 0 87 20" fill="none" xmlns="http://www.w3.org/2000/svg">
<path d="M18.5494 0C17.4989 0 16.6995 0.845339 16.6465 1.89405V2.1947C15.1805 1.03216 13.4168 0.305947 11.5573 0.0992122C9.69781 -0.107522 7.81768 0.213579 6.13218 1.02575C4.44669 1.83792 3.02398 3.10833 2.02696 4.6915C1.02994 6.27468 0.498916 8.10663 0.494685 9.97759C0.490453 11.8485 1.01319 13.6829 2.00304 15.2706C2.99289 16.8582 4.40983 18.1351 6.09163 18.9548C7.77343 19.7746 9.6521 20.1042 11.5125 19.9059C13.3729 19.7076 15.1399 18.9894 16.6111 17.8335V19.6338H20.3585L20.401 0.00353698L18.5494 0ZM10.4143 16.1711C9.19094 16.1672 7.99614 15.8009 6.98081 15.1185C5.96548 14.436 5.17516 13.468 4.70965 12.3366C4.24415 11.2053 4.12434 9.96133 4.36537 8.76193C4.60639 7.56252 5.19743 6.46144 6.06385 5.59774C6.93027 4.73404 8.0332 4.14645 9.23335 3.90919C10.4335 3.67193 11.6771 3.79564 12.8069 4.26469C13.9368 4.73374 14.9024 5.5271 15.5817 6.54457C16.2609 7.56204 16.6235 8.75798 16.6235 9.98136V10.0326C16.6099 11.6678 15.9499 13.2312 14.7875 14.3813C13.6251 15.5314 12.0548 16.1749 10.4196 16.1711" fill="#00CCFF"/>
<path d="M76.9387 0.0234375H34.1218C28.6053 0.0234375 24.1333 4.49541 24.1333 10.0119C24.1333 15.5283 28.6053 20.0003 34.1218 20.0003H76.9387C82.4552 20.0003 86.9271 15.5283 86.9271 10.0119C86.9271 4.49541 82.4552 0.0234375 76.9387 0.0234375Z" fill="#FF7800"/>
<path d="M33.3306 13.2818L35.9833 11.7379C36.4349 12.8132 37.2319 13.3508 38.3743 13.3508C39.3293 13.3508 39.7891 13.0731 39.7891 12.5355C39.7891 12.1712 39.5115 11.8953 38.9756 11.669C38.7493 11.5823 38.2293 11.4267 37.4494 11.2021C35.23 10.5601 33.8435 9.48488 33.8435 7.40513C33.8258 6.89068 33.9243 6.37886 34.1316 5.90768C34.3388 5.4365 34.6496 5.01806 35.0407 4.68343C35.8542 3.99018 36.8564 3.64355 38.0472 3.64355C40.0756 3.64355 41.7221 4.61446 42.5533 6.41655L39.9536 7.94276C39.5734 7.04082 38.9491 6.58986 38.0648 6.58986C37.3185 6.58986 36.9383 6.9188 36.9383 7.38745C36.9383 7.918 37.3716 8.22041 39.0181 8.70497C39.5075 8.8413 39.9887 9.00545 40.4594 9.19661C40.8723 9.37799 41.2668 9.5989 41.6372 9.85626C42.4861 10.4116 42.9034 11.3117 42.9034 12.509C42.9034 13.7063 42.4861 14.6312 41.6372 15.2997C40.7883 15.9682 39.6795 16.3042 38.2912 16.3042C35.7234 16.2971 34.0062 15.137 33.3306 13.2818Z" fill="white"/>
<path d="M50.7848 3.90332H53.869V16.0369H50.7848V11.3752H47.3698V16.0369H44.2661V3.90332H47.3698V8.39352H50.7848V3.90332Z" fill="white"/>
<path d="M61.7127 16.2973C60.8745 16.3157 60.0413 16.1639 59.2635 15.8511C58.4856 15.5384 57.7793 15.0711 57.1871 14.4775C56.5886 13.8923 56.1167 13.1904 55.8006 12.4152C55.4845 11.6401 55.3311 10.8083 55.3497 9.97143C55.3497 8.18525 55.958 6.69442 57.1871 5.48123C58.3951 4.30302 60.0156 3.64355 61.703 3.64355C63.3904 3.64355 65.0109 4.30302 66.2188 5.48123C66.8214 6.06097 67.2973 6.75925 67.6166 7.53206C67.9359 8.30487 68.0916 9.13545 68.074 9.97143C68.0809 10.8075 67.9207 11.6366 67.6026 12.4099C67.2846 13.1831 66.8153 13.8851 66.2222 14.4744C65.629 15.0637 64.9241 15.5286 64.1488 15.8416C63.3735 16.1547 62.5434 16.3096 61.7074 16.2973H61.7127ZM61.7127 13.2644C62.1482 13.2785 62.5818 13.2029 62.9868 13.0422C63.3917 12.8814 63.7593 12.6391 64.0665 12.3302C64.3737 12.0213 64.6141 11.6525 64.7726 11.2467C64.9312 10.8409 65.0045 10.4068 64.988 9.97143C64.9981 9.5348 64.9209 9.10054 64.7608 8.69419C64.6007 8.28783 64.361 7.91757 64.0558 7.60518C63.7506 7.29278 63.386 7.04455 62.9835 6.87508C62.5809 6.7056 62.1486 6.61829 61.7118 6.61829C61.2751 6.61829 60.8427 6.7056 60.4402 6.87508C60.0377 7.04455 59.6731 7.29278 59.3679 7.60518C59.0627 7.91757 58.823 8.28783 58.6629 8.69419C58.5028 9.10054 58.4256 9.5348 58.4357 9.97143C58.4192 10.4069 58.4925 10.8412 58.6512 11.2471C58.8098 11.653 59.0503 12.022 59.3578 12.3309C59.6652 12.6398 60.0329 12.8821 60.4381 13.0427C60.8432 13.2033 61.2771 13.2788 61.7127 13.2644Z" fill="white"/>
<path d="M74.27 3.90297C74.838 3.88741 75.4034 3.9851 75.9332 4.19036C76.4631 4.39561 76.9467 4.70432 77.356 5.09847C77.7663 5.49141 78.0895 5.96619 78.3046 6.49202C78.5197 7.01786 78.6219 7.58303 78.6046 8.15089C78.6215 8.71844 78.5192 9.28323 78.3041 9.80873C78.089 10.3342 77.766 10.8087 77.356 11.2015C76.9465 11.5954 76.4628 11.9039 75.933 12.1091C75.4032 12.3143 74.8379 12.4122 74.27 12.397H72.6589V16.0366H69.5552V3.90297H74.27ZM74.27 9.45073C74.9633 9.45073 75.5079 8.92018 75.5079 8.15089C75.5172 7.98374 75.4919 7.81648 75.4336 7.65956C75.3753 7.50265 75.2852 7.35945 75.169 7.23894C75.0528 7.11843 74.913 7.02319 74.7583 6.95919C74.6036 6.89518 74.4374 6.86379 74.27 6.86696H72.6589V9.45073H74.27Z" fill="white"/>
</svg>
