<svg width="70" height="20" viewBox="0 0 70 20" fill="none" xmlns="http://www.w3.org/2000/svg">
<path d="M37.1167 4.20146C40.5341 4.20146 43.0121 6.74924 43.0121 10.1813C43.0121 13.6133 40.5341 16.1611 37.1167 16.1611C36.318 16.1728 35.5254 16.0204 34.7881 15.7134C34.0508 15.4063 33.3845 14.9512 32.8306 14.3762V20H31.0242V4.45247H32.2673L32.627 6.20458C33.1829 5.56311 33.8729 5.05128 34.6484 4.70518C35.4238 4.35908 36.2658 4.18713 37.1151 4.20146H37.1167ZM36.9804 14.4156C39.4125 14.4156 41.186 12.6109 41.186 10.1813C41.186 7.75162 39.4125 5.94701 36.9804 5.94701C34.5483 5.94701 32.7534 7.76803 32.7534 10.1813C32.7534 12.5945 34.5598 14.4156 36.9804 14.4156Z" fill="#F52337"/>
<path d="M56.3221 4.45246V15.9101H54.8261L54.6356 14.1744C53.5797 15.4081 51.9982 16.1611 50.136 16.1611C46.7449 16.1611 44.2011 13.5936 44.2011 10.1813C44.2011 6.76893 46.7449 4.20146 50.136 4.20146C52.0114 4.20146 53.6027 4.96104 54.6602 6.2095L54.8852 4.45246H56.3221ZM54.4779 10.1813C54.4779 7.74505 52.7044 5.94701 50.2723 5.94701C47.8402 5.94701 46.0453 7.76966 46.0453 10.1813C46.0453 12.5929 47.8435 14.4155 50.2723 14.4155C52.7011 14.4155 54.4779 12.6191 54.4779 10.1813Z" fill="#F52337"/>
<path d="M69.412 4.45246L63.955 16.3842C62.7184 19.0977 61.6264 19.9934 59.462 19.9934H58.3715V18.3644H59.2977C60.8315 18.3644 61.3735 17.8952 62.2964 15.9806L62.7086 15.1226L57.6063 4.4459H59.5769L63.6545 13.1179L67.4939 4.4459L69.412 4.45246Z" fill="#F52337"/>
<path d="M23.7017 8.8918V15.8379H20.304V9.38889C20.304 7.98622 19.4205 7.33 18.3334 7.33C17.0886 7.33 16.2281 8.05512 16.2281 9.66122V15.8379H12.8304V0H16.2281V5.58773C16.839 4.75105 17.9721 4.20802 19.4665 4.20802C21.7507 4.20802 23.7017 5.83709 23.7017 8.8918Z" fill="#F52337"/>
<path d="M5.98577 4.20146C4.8019 4.20146 3.64461 4.55217 2.66026 5.20924C1.6759 5.86631 0.90869 6.80023 0.455641 7.8929C0.00259219 8.98557 -0.115944 10.1879 0.115018 11.3479C0.34598 12.5079 0.916068 13.5734 1.75319 14.4096C2.59032 15.2459 3.65688 15.8155 4.81801 16.0462C5.97914 16.2769 7.18268 16.1585 8.27643 15.7059C9.37019 15.2533 10.305 14.4869 10.9628 13.5035C11.6205 12.5201 11.9715 11.364 11.9715 10.1813C11.9715 8.59533 11.3409 7.07434 10.2184 5.95291C9.09581 4.83147 7.5733 4.20146 5.98577 4.20146ZM5.98577 12.8488C5.45759 12.8491 4.94117 12.693 4.50184 12.4001C4.06252 12.1071 3.72002 11.6906 3.51766 11.2032C3.31531 10.7158 3.2622 10.1794 3.36504 9.66187C3.46789 9.14431 3.72207 8.66885 4.09544 8.29562C4.46881 7.9224 4.94459 7.66817 5.4626 7.56511C5.98061 7.46205 6.51758 7.51478 7.00559 7.71663C7.4936 7.91848 7.91073 8.26039 8.20421 8.6991C8.49768 9.13781 8.65433 9.65362 8.65433 10.1813C8.65433 10.8885 8.37323 11.5667 7.87283 12.0669C7.37242 12.5671 6.69367 12.8484 5.98577 12.8488Z" fill="#F52337"/>
<path d="M24.4374 14.0103C24.4364 13.5853 24.5617 13.1696 24.7974 12.8157C25.0331 12.4619 25.3686 12.1859 25.7614 12.0227C26.1542 11.8594 26.5866 11.8163 27.004 11.8987C27.4213 11.9812 27.8048 12.1855 28.1059 12.4858C28.4069 12.7861 28.612 13.1688 28.6952 13.5857C28.7783 14.0025 28.7358 14.4346 28.573 14.8272C28.4102 15.2199 28.1344 15.5554 27.7806 15.7914C27.4268 16.0274 27.0108 16.1532 26.5854 16.1529C26.0173 16.1495 25.4735 15.9227 25.0715 15.5218C24.6695 15.1208 24.4417 14.5778 24.4374 14.0103Z" fill="#F52337"/>
<path d="M24.5507 5.86991V0.549589C24.5507 0.405135 24.6081 0.266598 24.7104 0.164453C24.8126 0.0623091 24.9513 0.00492647 25.0959 0.00492647H28.0765C28.2211 0.00492647 28.3597 0.0623091 28.462 0.164453C28.5642 0.266598 28.6217 0.405135 28.6217 0.549589V5.86991C28.6234 5.89394 28.6234 5.91806 28.6217 5.94209L28.0108 10.5192C27.9933 10.6496 27.929 10.7691 27.83 10.8557C27.7309 10.9423 27.6038 10.99 27.4721 10.9901H25.7052C25.5735 10.99 25.4464 10.9423 25.3473 10.8557C25.2483 10.7691 25.184 10.6496 25.1665 10.5192L24.5556 5.94209C24.5523 5.91817 24.5506 5.89405 24.5507 5.86991Z" fill="#F52337"/>
</svg>
