<svg width="40" height="40" viewBox="0 0 40 40" fill="none" xmlns="http://www.w3.org/2000/svg">
<path fill-rule="evenodd" clip-rule="evenodd" d="M30.6667 14.3333L24.1667 7.66658C24.0001 7.49992 23.8334 7.33325 23.5001 7.33325H23.3334H23.1667H23.0001H15.0001C11.8334 7.33325 9.16675 9.83325 9.16675 12.9999V26.6666C9.16675 29.8333 11.6667 32.4999 14.8334 32.4999H25.1667C28.3334 32.3333 30.8334 29.8333 30.8334 26.6666V14.9999C30.8334 14.8333 30.8334 14.6666 30.6667 14.3333ZM24.0001 10.3333L28.0001 14.4999H26.3334C25.0001 14.4999 24.0001 13.4999 24.0001 12.1666V10.3333ZM29.3334 26.6666C29.3334 28.8333 27.3334 30.6666 25.1667 30.6666H15.0001C12.8334 30.6666 11.0001 28.8333 11.1667 26.6666V13.1666C11.1667 10.9999 13.0001 9.33325 15.1667 9.33325H22.5001V12.1666C22.5001 14.4999 24.3334 16.3333 26.6667 16.3333H29.3334V26.6666ZM22.8334 23.4999H16C15.5 23.4999 15.1667 23.8333 15.1667 24.3333C15.1667 24.8333 15.5 25.1666 16 25.1666H23C23.5 25.1666 23.8334 24.8333 23.8334 24.3333C23.8334 23.8333 23.3334 23.4999 22.8334 23.4999ZM20.3335 20.5H16.0002C15.5002 20.5 15.0002 20.1666 15.1668 19.4999C15.1668 18.9999 15.5002 18.6666 16.0002 18.6666H20.3335C21.0002 18.6666 21.3335 18.9999 21.3335 19.4999C21.3335 20.1666 20.8335 20.5 20.3335 20.5Z" fill="#9799A1"/>
</svg>
