<svg width="32" height="32" viewBox="0 0 32 32" fill="none" xmlns="http://www.w3.org/2000/svg">
<path fill-rule="evenodd" clip-rule="evenodd" d="M10.6335 4C9.04985 4 7.53249 4.59953 6.41479 5.6646C5.29732 6.72945 4.67073 8.17236 4.67073 9.67555L4.67077 9.68281C4.68478 10.9645 5.15697 12.1976 6.00004 13.1831C4.75605 14.495 4 16.212 4 18.0986C4 20.3776 5.10939 22.4785 6.9856 23.8803V26.3218C6.9856 27.2655 7.81923 28 8.79009 28H12.7921C13.7629 28 14.5966 27.2655 14.5966 26.3218V25.5797H14.9578V26.3218C14.9578 27.2655 15.7914 28 16.7623 28H20.7643C21.7351 28 22.5687 27.2655 22.5687 26.3218V24.2026C23.5889 23.5291 24.4408 22.6299 25.0424 21.6139H26.1955C27.1664 21.6139 28 20.8794 28 19.9357V16.2615C28 15.3021 27.1491 14.5834 26.1637 14.5834H25.0153C24.2519 13.2746 23.0657 12.1864 21.6477 11.488V9.84626C21.6477 9.19164 21.2721 8.64632 20.672 8.3458C20.6635 8.34155 20.6549 8.33744 20.6463 8.33348C20.1244 8.09389 19.3838 8.05404 18.8026 8.45264L16.5928 9.82248C16.5945 9.776 16.5957 9.72944 16.5962 9.68281L16.5962 9.67555C16.5962 8.17236 15.9696 6.72945 14.8521 5.6646C13.7345 4.59953 12.2171 4 10.6335 4ZM16.0346 12.0208C15.7388 12.6201 15.3317 13.1708 14.8258 13.6441C13.7088 14.6892 12.2016 15.2713 10.6335 15.261C9.39628 15.2691 8.19693 14.9085 7.19726 14.2427C6.22483 15.2827 5.63975 16.632 5.63975 18.0986C5.63975 19.9987 6.61659 21.7489 8.2795 22.8616C8.49643 23.0067 8.62535 23.2422 8.62535 23.4933V26.3218C8.62535 26.3458 8.63539 26.3758 8.66683 26.4046C8.69854 26.4337 8.74192 26.4516 8.79009 26.4516H12.7921C12.8402 26.4516 12.8836 26.4337 12.9153 26.4046C12.9468 26.3758 12.9568 26.3458 12.9568 26.3218V24.8055C12.9568 24.3779 13.3239 24.0313 13.7767 24.0313H15.7777C16.2305 24.0313 16.5975 24.3779 16.5975 24.8055V26.3218C16.5975 26.3458 16.6076 26.3758 16.639 26.4046C16.6707 26.4337 16.7141 26.4516 16.7623 26.4516H20.7643C20.8124 26.4516 20.8558 26.4337 20.8875 26.4046C20.919 26.3758 20.929 26.3458 20.929 26.3218V23.7849C20.929 23.5158 21.077 23.266 21.3198 23.1251C22.3887 22.5054 23.2668 21.5704 23.8038 20.5066C23.9398 20.2371 24.2278 20.0655 24.5439 20.0655H26.1955C26.2437 20.0655 26.2871 20.0476 26.3188 20.0185C26.3502 19.9897 26.3603 19.9597 26.3603 19.9357V16.2615C26.3603 16.2295 26.3219 16.1318 26.1637 16.1318H24.5121C24.1929 16.1318 23.9027 15.9568 23.7684 15.6833C23.1237 14.3708 21.9392 13.2805 20.4985 12.684C20.2005 12.5606 20.0079 12.2823 20.0079 11.975V9.84626C20.0079 9.80785 19.9988 9.79061 19.9928 9.78156C19.9866 9.77214 19.9682 9.74861 19.9178 9.72112C19.8825 9.70708 19.8403 9.69967 19.8031 9.70118C19.7789 9.70217 19.7666 9.70628 19.763 9.70773C19.7494 9.71732 19.7356 9.72651 19.7214 9.73529L16.0346 12.0208ZM7.47364 6.65541C8.31285 5.85572 9.44961 5.40764 10.6335 5.40764C11.8173 5.40764 12.9541 5.85572 13.7933 6.65541C14.6318 7.45447 15.1045 8.53926 15.1055 9.67193C15.0923 10.7924 14.6137 11.861 13.7766 12.6442C12.9389 13.428 11.8105 13.8621 10.6394 13.8533H10.6275C9.4564 13.8621 8.32806 13.428 7.49031 12.6442C6.65323 11.861 6.17467 10.7924 6.16142 9.67192C6.16243 8.53926 6.63511 7.45447 7.47364 6.65541ZM10.3514 10.5001C10.3526 10.3462 10.2984 10.2282 10.189 10.146C10.0796 10.062 9.8821 9.97376 9.59661 9.88131C9.31114 9.78706 9.08527 9.69502 8.91902 9.60519C8.46593 9.35955 8.24097 9.03125 8.24415 8.62031C8.2458 8.40669 8.30781 8.21702 8.43017 8.05129C8.55439 7.88375 8.7306 7.75369 8.95881 7.66108C9.18349 7.57065 9.43407 7.52529 9.71055 7.52501C9.71722 7.525 9.7239 7.52502 9.73059 7.52506C10.0168 7.52699 10.2714 7.5803 10.4944 7.685C10.7174 7.78788 10.8897 7.93297 11.0112 8.12026C11.1345 8.30756 11.1952 8.51979 11.1934 8.75694L10.3678 8.75138C10.3692 8.57035 10.3123 8.42966 10.1975 8.32931C10.0827 8.22716 9.92077 8.17538 9.71164 8.17397C9.70694 8.17394 9.70226 8.17393 9.69761 8.17394C9.50263 8.17459 9.35018 8.21609 9.24027 8.29843C9.12772 8.38095 9.07091 8.491 9.06985 8.62858C9.06886 8.75712 9.13315 8.86527 9.26273 8.95304C9.39415 9.04083 9.58706 9.12359 9.84147 9.20134C10.31 9.3439 10.6508 9.51909 10.8639 9.72691C11.0769 9.93473 11.1823 10.1925 11.1799 10.5003C11.1772 10.8424 11.044 11.1104 10.7801 11.3041C10.5194 11.4938 10.1706 11.5883 9.73393 11.5876C9.72872 11.5876 9.7235 11.5876 9.71827 11.5875C9.41007 11.5855 9.12981 11.5284 8.8775 11.4162C8.6252 11.3023 8.43284 11.148 8.30041 10.9534C8.16982 10.7588 8.10551 10.5339 8.10749 10.2786L8.93578 10.2842C8.93241 10.7205 9.19508 10.9404 9.72343 10.944C9.728 10.944 9.73254 10.944 9.73707 10.944C9.92676 10.9435 10.0756 10.9056 10.1837 10.8303C10.2944 10.7514 10.3503 10.6413 10.3514 10.5001ZM11.3369 11.8836L12.845 7.60035L13.4367 7.60433L11.9287 11.8876L11.3369 11.8836Z" fill="#B1B3B9"/>
</svg>
