<svg width="32" height="32" viewBox="0 0 32 32" fill="none" xmlns="http://www.w3.org/2000/svg">
<path fill-rule="evenodd" clip-rule="evenodd" d="M16.147 10.2412C16.0589 13.0169 13.5461 15.2474 10.4747 15.2474C8.62068 15.2474 6.97024 14.4471 5.93377 13.1951C4.73004 14.4878 4 16.1828 4 18.0384C4 20.4002 5.18362 22.5704 7.17887 23.9428V27.0386C7.17887 27.5812 7.65231 28.028 8.22721 28.028H12.4882C13.0631 28.028 13.5366 27.5812 13.5366 27.0386V25.379H15.6671V27.0386C15.6671 27.5812 16.1406 28.028 16.7155 28.028H20.9765C21.5514 28.028 22.0248 27.5812 22.0248 27.0386V24.262C23.3099 23.496 24.3583 22.347 25.0008 21.0385H26.7593C27.3342 21.0385 27.8077 20.5917 27.8077 20.0491V16.0278C27.8077 15.4852 27.3342 15.0384 26.7255 15.0384H24.967C24.1892 13.4107 22.7688 12.0702 21.0441 11.3362V9.00634C21.0441 8.62335 20.8412 8.3042 20.4692 8.11271C20.1311 7.95313 19.6914 7.95313 19.3871 8.17654L16.147 10.2412Z" fill="#0950FF"/>
<path d="M10.6002 16.6667C14.09 16.6667 16.9335 13.8276 16.9335 10.3333C16.9335 6.83908 14.09 4 10.6002 4C7.11038 4 4.26685 6.83908 4.26685 10.3333C4.26685 13.8713 7.11038 16.6667 10.6002 16.6667Z" fill="#C4DAFF"/>
<path d="M9.95587 11.7183C9.95744 11.5207 9.89312 11.3691 9.76288 11.2636C9.63266 11.1558 9.39763 11.0426 9.05777 10.9241C8.71794 10.8033 8.44908 10.6853 8.2512 10.5701C7.71193 10.255 7.4444 9.83349 7.44862 9.30566C7.45081 9.03128 7.52485 8.7876 7.67073 8.57461C7.81882 8.35932 8.02879 8.1921 8.30063 8.07295C8.57466 7.95382 8.88097 7.89536 9.21957 7.89756C9.56036 7.89978 9.86347 7.96803 10.1289 8.10231C10.3944 8.23426 10.5994 8.42046 10.7438 8.66092C10.8904 8.90139 10.9625 9.17393 10.9601 9.47853L9.97708 9.47213C9.97894 9.2396 9.91156 9.05895 9.77496 8.93016C9.63838 8.79905 9.44557 8.73268 9.19653 8.73106C8.95624 8.72949 8.76903 8.78292 8.6349 8.89134C8.50079 8.99743 8.43303 9.13884 8.43162 9.31555C8.4303 9.48065 8.50675 9.61951 8.66095 9.73213C8.81735 9.84477 9.04698 9.9509 9.34984 10.0505C9.90765 10.2332 10.3133 10.458 10.5668 10.7247C10.8202 10.9914 10.9454 11.3225 10.9422 11.7178C10.9387 12.1572 10.7798 12.5015 10.4654 12.7506C10.151 12.9974 9.7295 13.119 9.20085 13.1156C8.83385 13.1132 8.50019 13.0401 8.19986 12.8963C7.89955 12.7502 7.67065 12.5522 7.51317 12.3023C7.35787 12.0525 7.28153 11.7637 7.28415 11.4358L8.27045 11.4422C8.26598 12.0026 8.57831 12.2848 9.20745 12.289C9.44119 12.2905 9.62399 12.2417 9.75586 12.1425C9.88775 12.0411 9.95442 11.8997 9.95587 11.7183Z" fill="#0950FF"/>
<path d="M11.8324 13.499L11.1279 13.4944L12.9283 7.9915L13.6328 7.99609L11.8324 13.499Z" fill="#0950FF"/>
</svg>
