<svg width="32" height="32" viewBox="0 0 32 32" fill="none" xmlns="http://www.w3.org/2000/svg">
<path d="M21.3664 16.1674C21.3761 15.3623 21.5764 14.573 21.9486 13.8729C22.3209 13.1727 22.8529 12.5845 23.4953 12.1631C23.087 11.541 22.5487 11.0292 21.923 10.668C21.2973 10.3068 20.6014 10.1063 19.8905 10.0824C18.3739 9.91248 16.9004 11.0518 16.1302 11.0518C15.36 11.0518 14.1532 10.099 12.8699 10.1271C12.041 10.1555 11.2331 10.4128 10.5251 10.874C9.817 11.3351 9.23291 11.9843 8.82973 12.7583C7.08235 15.9873 8.386 20.7337 10.0592 23.3432C10.8964 24.6205 11.8748 26.0485 13.1557 25.9987C14.4091 25.9438 14.8768 25.1468 16.385 25.1468C17.8931 25.1468 18.3225 25.9987 19.6286 25.9668C20.9729 25.9451 21.8197 24.6831 22.6282 23.3931C23.2301 22.4825 23.6931 21.4759 24 20.4106C23.2203 20.0565 22.5552 19.4656 22.0874 18.7112C21.6196 17.9568 21.3697 17.0722 21.3688 16.1674H21.3664ZM18.899 8.36568C19.6322 7.42662 19.9935 6.21913 19.906 5C18.7861 5.12569 17.7515 5.69707 17.0081 6.60046C16.6448 7.04177 16.3665 7.55524 16.1892 8.1115C16.0119 8.66775 15.939 9.25586 15.9747 9.84223C16.5347 9.84785 17.0887 9.71794 17.5949 9.46221C18.1012 9.20648 18.5466 8.83159 18.8978 8.36568H18.899Z" fill="#B1B3B9"/>
</svg>
