<svg width="32" height="32" viewBox="0 0 32 32" fill="none" xmlns="http://www.w3.org/2000/svg">
<path fill-rule="evenodd" clip-rule="evenodd" d="M25.24 13.9207L24.52 13.2007C24.3709 13.0529 24.2537 12.8761 24.1757 12.6811C24.0978 12.4862 24.0606 12.2773 24.0667 12.0674V11.0807C24.0667 10.2815 23.7492 9.51508 23.1841 8.94997C22.619 8.38486 21.8526 8.06738 21.0534 8.06738H20.0667C19.6615 8.06229 19.2742 7.8997 18.9867 7.61405L18.2534 6.88072C17.6846 6.32049 16.9184 6.00647 16.12 6.00647C15.3217 6.00647 14.5554 6.32049 13.9867 6.88072L13.2534 7.61405C13.0984 7.76862 12.9127 7.88887 12.7083 7.96697C12.5038 8.04508 12.2852 8.07929 12.0667 8.06738H11.08C10.2809 8.06738 9.5144 8.38486 8.94929 8.94997C8.38418 9.51508 8.06671 10.2815 8.06671 11.0807V12.0674C8.06735 12.2706 8.02761 12.4719 7.94978 12.6596C7.87196 12.8472 7.75761 13.0176 7.61337 13.1607L6.88004 13.894C6.32148 14.4583 6.00815 15.2201 6.00815 16.014C6.00815 16.808 6.32148 17.5698 6.88004 18.1341L7.60004 18.8541C7.76195 19.0098 7.88768 19.1991 7.96832 19.4088C8.04896 19.6185 8.08255 19.8433 8.06671 20.0674V21.1074C8.08069 21.8973 8.40433 22.6501 8.96793 23.2037C9.53153 23.7574 10.29 24.0675 11.08 24.0674H12.0667C12.2701 24.0652 12.4718 24.1043 12.6598 24.1822C12.8477 24.2601 13.0178 24.3753 13.16 24.5207L13.8934 25.254C14.1721 25.5342 14.5035 25.7566 14.8685 25.9083C15.2335 26.06 15.6248 26.1381 16.02 26.1381C16.4153 26.1381 16.8066 26.06 17.1716 25.9083C17.5365 25.7566 17.8679 25.5342 18.1467 25.254L18.88 24.5341C19.0317 24.3742 19.2165 24.2496 19.4216 24.169C19.6266 24.0884 19.8468 24.0537 20.0667 24.0674H21.1067C21.8966 24.0534 22.6494 23.7298 23.2031 23.1662C23.7567 22.6026 24.0668 21.8441 24.0667 21.054V20.0674C24.0663 19.8662 24.1063 19.667 24.1841 19.4815C24.262 19.296 24.3762 19.128 24.52 18.9874L25.2534 18.2407C25.5412 17.959 25.7696 17.6225 25.9252 17.251C26.0807 16.8795 26.1602 16.4806 26.159 16.0779C26.1577 15.6752 26.0758 15.2768 25.9179 14.9063C25.7601 14.5357 25.5296 14.2006 25.24 13.9207Z" fill="#F3008A"/>
<path fill-rule="evenodd" clip-rule="evenodd" d="M12.6039 14.49C12.8539 14.7401 13.1931 14.8805 13.5467 14.8805C13.9003 14.8805 14.2394 14.7401 14.4895 14.49C14.7395 14.24 14.88 13.9008 14.88 13.5472C14.88 13.1936 14.7395 12.8544 14.4895 12.6044C14.2394 12.3543 13.9003 12.2139 13.5467 12.2139C13.1931 12.2139 12.8539 12.3543 12.6039 12.6044C12.3538 12.8544 12.2133 13.1936 12.2133 13.5472C12.2133 13.9008 12.3538 14.24 12.6039 14.49ZM13.48 19.3873C13.3831 19.3909 13.2866 19.3737 13.1969 19.3369C13.1073 19.3001 13.0265 19.2446 12.96 19.174C12.8902 19.108 12.8346 19.0284 12.7966 18.9401C12.7586 18.8519 12.739 18.7568 12.739 18.6607C12.739 18.5646 12.7586 18.4695 12.7966 18.3812C12.8346 18.293 12.8902 18.2134 12.96 18.1473L18.1467 12.9607C18.2828 12.8245 18.4675 12.748 18.66 12.748C18.8526 12.748 19.0372 12.8245 19.1734 12.9607C19.3095 13.0968 19.386 13.2815 19.386 13.474C19.386 13.6665 19.3095 13.8512 19.1734 13.9873L13.9867 19.174C13.9217 19.2429 13.8431 19.2974 13.7559 19.3342C13.6686 19.3709 13.5747 19.389 13.48 19.3873ZM18.5867 19.9206C18.233 19.9206 17.8939 19.7801 17.6439 19.53C17.3938 19.28 17.2533 18.9409 17.2533 18.5872C17.2533 18.2336 17.3938 17.8945 17.6439 17.6444C17.8939 17.3944 18.233 17.2539 18.5867 17.2539C18.9403 17.2539 19.2794 17.3944 19.5295 17.6444C19.7795 17.8945 19.92 18.2336 19.92 18.5872C19.92 18.9409 19.7795 19.28 19.5295 19.53C19.2794 19.7801 18.9403 19.9206 18.5867 19.9206Z" fill="white"/>
</svg>
