<svg width="32" height="32" viewBox="0 0 32 32" fill="none" xmlns="http://www.w3.org/2000/svg">
<path fill-rule="evenodd" clip-rule="evenodd" d="M24.5335 13.0671L25.2001 13.7337C25.8668 14.4004 26.1335 15.0671 26.1335 15.8671C26.1335 16.6671 25.7335 17.4671 25.2001 18.0004L24.4001 18.8004C24.1335 19.0671 24.0001 19.4671 24.0001 19.8671V20.9337C24.0001 22.6671 22.5335 24.0004 20.9335 24.0004H19.8668C19.4668 24.0004 19.0668 24.1337 18.8001 24.4004L18.1335 25.0671C17.6001 25.7337 16.8001 26.0004 16.0001 26.0004C15.2001 26.0004 14.4001 25.6004 13.8668 25.0671L13.2001 24.4004C12.9335 24.1337 12.5335 24.0004 12.1335 24.0004H11.0668C9.33346 24.0004 8.00012 22.5337 8.00012 20.9337V19.8671C8.00012 19.4671 7.86679 19.0671 7.60012 18.8004L6.93346 18.1337C6.26679 17.6004 6.00012 16.8004 6.00012 16.0004C6.00012 15.0671 6.26679 14.4004 6.93346 13.8671L7.60012 13.0671C7.86679 12.8004 8.00012 12.4004 8.00012 12.0004V10.9337C8.00012 9.2004 9.46679 7.86707 11.0668 7.86707H12.1335C12.5335 7.86707 12.9335 7.73373 13.2001 7.46707L13.8668 6.8004C14.5335 6.13373 15.3335 5.86707 16.0001 5.86707C16.9335 5.86707 17.6001 6.13373 18.2668 6.8004L18.9335 7.46707C19.2001 7.73373 19.6001 7.86707 20.0001 7.86707H21.0668C22.8001 7.86707 24.1335 9.33373 24.1335 10.9337V12.0004C24.1335 12.4004 24.2668 12.8004 24.5335 13.0671ZM23.6001 17.7337L24.2668 17.0671C24.8001 16.4004 24.8001 15.4671 24.2668 14.9337L23.6001 14.2671C22.9335 13.7337 22.6668 12.9337 22.6668 12.1337V11.0671C22.6668 10.1337 21.8668 9.46707 21.0668 9.46707H20.0001C19.2001 9.46707 18.4001 9.06707 17.8668 8.53373L17.2001 7.73373C16.5335 7.2004 15.6001 7.2004 15.0668 7.73373L14.4001 8.4004C13.8668 9.06707 13.0668 9.33373 12.2668 9.33373H11.2001C10.2668 9.33373 9.60012 10.1337 9.60012 10.9337V12.0004C9.60012 12.8004 9.20012 13.6004 8.66679 14.1337L7.86679 14.8004C7.60012 15.0671 7.46679 15.4671 7.46679 15.8671C7.46679 16.4004 7.60012 16.6671 7.86679 17.0671L8.53346 17.7337C9.20012 18.2671 9.46679 19.0671 9.46679 19.8671V20.9337C9.46679 21.8671 10.2668 22.5337 11.0668 22.5337H12.2668C13.0668 22.5337 13.8668 22.9337 14.4001 23.4671L15.0668 24.1337C15.6001 24.8004 16.6668 24.8004 17.2001 24.1337L17.8668 23.4671C18.4001 22.8004 19.2001 22.5337 20.0001 22.5337H21.0668C22.0001 22.5337 22.6668 21.7337 22.6668 20.9337V19.8671C22.6668 19.0671 23.0668 18.2671 23.6001 17.7337ZM18.1336 12.8004C18.4002 12.5338 18.9336 12.5338 19.2002 12.8004C19.4669 13.0671 19.4669 13.6004 19.2002 13.8671L14.0002 19.0671C13.8669 19.2004 13.6002 19.2004 13.4669 19.2004C13.3336 19.2004 13.0669 19.2004 12.9336 19.0671C12.6669 18.8004 12.6669 18.2671 12.9336 18.0004L18.1336 12.8004ZM18.5335 17.0669C17.7335 17.0669 17.2002 17.6002 17.2002 18.4002C17.2002 19.2002 17.8669 19.7336 18.5335 19.7336C19.2002 19.7336 19.8669 19.2002 19.8669 18.4002C19.8669 17.6002 19.3335 17.0669 18.5335 17.0669ZM13.6001 12.1336C14.4001 12.1336 14.9334 12.667 14.9334 13.467C14.9334 14.1336 14.2668 14.8003 13.6001 14.8003C12.9334 14.8003 12.2668 14.267 12.2668 13.467C12.2668 12.667 12.8001 12.1336 13.6001 12.1336Z" fill="#B1B3B9"/>
</svg>
