<svg width="32" height="32" viewBox="0 0 32 32" fill="none" xmlns="http://www.w3.org/2000/svg">
<path d="M8.04297 25.776C8.26752 25.922 8.5296 25.9997 8.7974 25.9997C9.06519 25.9997 9.32727 25.922 9.55182 25.776L20.4912 19.4815L17.412 16.4023L8.04297 25.776Z" fill="#B1B3B9"/>
<path d="M20.5847 13.022L9.55536 6.75104C9.34114 6.58222 9.07794 6.48746 8.80527 6.48084C8.53261 6.47422 8.26513 6.5561 8.04297 6.71432L17.4676 16.139L20.5847 13.022Z" fill="#B1B3B9"/>
<path d="M7.87768 6.8418C7.70358 7.13609 7.62382 7.47663 7.64912 7.81763V24.6465C7.64929 24.7237 7.65407 24.8009 7.66336 24.8775C7.66983 25.1566 7.77275 25.4248 7.95466 25.6366H7.96298L17.3189 16.2806L7.87768 6.8418Z" fill="#B1B3B9"/>
<path d="M24.9925 16.0264C24.9354 15.8476 24.8422 15.6824 24.7188 15.5411C24.5954 15.3997 24.4443 15.2851 24.2748 15.2044L20.7112 13.1758L17.625 16.262L20.7219 19.3589L24.2748 17.4404C24.9451 17.0567 25.1843 16.519 24.9925 16.0264Z" fill="#B1B3B9"/>
</svg>
