<svg width="129" height="35" viewBox="0 0 129 35" fill="none" xmlns="http://www.w3.org/2000/svg">
<path fill-rule="evenodd" clip-rule="evenodd" d="M22.605 0C21.2883 0 20.2841 1.05958 20.2199 2.37409V2.75093C18.3868 1.29296 16.1799 0.381074 13.8523 0.11983C11.5247 -0.141414 9.17066 0.258559 7.05997 1.27389C4.94928 2.28922 3.16745 3.8788 1.91876 5.86038C0.670069 7.84196 0.00507736 10.1353 2.89595e-05 12.4775C-0.00501944 14.8197 0.65008 17.1159 1.89022 19.1029C3.13035 21.0898 4.90532 22.6871 7.01161 23.7115C9.1179 24.7359 11.4702 25.146 13.7989 24.8948C16.1276 24.6436 18.3384 23.7412 20.1777 22.2912V24.5456H24.8749L24.9215 0H22.605ZM12.4082 20.2695C11.386 20.274 10.3732 20.0755 9.42827 19.6856C8.48338 19.2958 7.62525 18.7223 6.9036 17.9984C6.18196 17.2745 5.61116 16.4145 5.22426 15.4684C4.83737 14.5223 4.64209 13.5088 4.64972 12.4867C4.64846 10.4279 5.46044 8.452 6.90892 6.98899C8.3574 5.52598 10.3251 4.69432 12.3838 4.67503C16.6443 4.62183 20.1423 8.13531 20.1423 12.4579V12.5199C20.1481 13.5373 19.9527 14.5457 19.5672 15.4872C19.1817 16.4287 18.6139 17.2846 17.8962 18.0057C17.1786 18.7268 16.3255 19.2989 15.3859 19.6889C14.4463 20.079 13.4388 20.2793 12.4215 20.2784L12.4082 20.2695ZM79.7155 3.81861C82.0359 6.16582 83.3289 9.33871 83.31 12.6393C83.2911 15.9398 81.9618 19.0977 79.6146 21.4181C77.2674 23.7386 74.0945 25.0316 70.794 25.0127C67.4934 24.9938 64.3356 23.6645 62.0151 21.3173C57.2048 16.4206 57.2204 8.5291 62.1171 3.71664C64.4618 1.41095 67.6156 0.114109 70.9041 0.10341C72.5481 0.102705 74.1757 0.431054 75.6909 1.06911C77.2061 1.70717 78.5783 2.64203 79.7266 3.81861H79.7155ZM63.1611 12.6145C63.1611 14.1479 63.6156 15.647 64.467 16.9223C65.3184 18.1977 66.5287 19.1921 67.945 19.78C69.3612 20.3679 70.9199 20.523 72.4243 20.2256C73.9286 19.9282 75.311 19.1917 76.397 18.1091C77.483 17.0265 78.2239 15.6464 78.526 14.143C78.8281 12.6396 78.6779 11.0804 78.0945 9.66231C77.511 8.24422 76.5203 7.03083 75.2477 6.1754C73.975 5.31996 72.4774 4.86084 70.944 4.85602C69.9231 4.85282 68.9116 5.05113 67.9675 5.43959C67.0233 5.82805 66.1652 6.39903 65.4421 7.11979C64.7191 7.84055 64.1455 8.69692 63.754 9.63981C63.3626 10.5827 63.1611 11.5936 63.1611 12.6145ZM92.3759 2.91047C94.6067 1.14445 97.3667 0.180192 100.212 0.172843L102.46 0.177277V2.55802V2.62009C102.456 2.92878 102.391 3.23371 102.269 3.51704C102.146 3.80037 101.968 4.05643 101.746 4.27024C101.523 4.48405 101.26 4.65134 100.972 4.76232C100.684 4.87329 100.376 4.92574 100.068 4.91659C99.047 4.91338 98.0355 5.11169 97.0913 5.50016C96.1472 5.88862 95.2891 6.45959 94.566 7.18035C93.843 7.90111 93.2693 8.75748 92.8779 9.70038C92.4865 10.6433 92.285 11.6541 92.285 12.6751L92.2584 24.7627H87.5612L87.61 2.5292C87.6117 1.89817 87.864 1.29366 88.3112 0.848492C88.7585 0.403327 89.3641 0.153932 89.9952 0.15511H92.3759V2.53585V2.91047ZM126.062 0.232666C124.747 0.232666 123.743 1.29225 123.679 2.60676V2.9836C121.841 1.52663 119.63 0.616609 117.299 0.357742C114.969 0.0988753 112.612 0.501624 110.499 1.51987C108.387 2.53812 106.604 4.13071 105.354 6.11527C104.105 8.09984 103.44 10.3962 103.434 12.7413C103.429 15.0864 104.085 17.3856 105.326 19.3755C106.567 21.3654 108.343 22.9657 110.451 23.993C112.559 25.0203 114.914 25.4332 117.246 25.1843C119.578 24.9355 121.793 24.035 123.637 22.5859V24.8425H128.332L128.387 0.237099L126.062 0.232666ZM115.865 20.5044C114.331 20.4983 112.834 20.0378 111.562 19.1811C110.29 18.3243 109.3 17.1098 108.718 15.691C108.136 14.2721 107.987 12.7126 108.291 11.2093C108.595 9.7061 109.337 8.3266 110.425 7.24511C111.512 6.16361 112.896 5.42865 114.4 5.13304C115.905 4.83744 117.464 4.99447 118.88 5.58428C120.295 6.1741 121.505 7.17026 122.354 8.4469C123.204 9.72355 123.657 11.2234 123.654 12.757V12.8191C123.636 14.8683 122.807 16.8269 121.349 18.2672C119.891 19.7075 117.923 20.5126 115.874 20.5066L115.865 20.5044ZM51.4678 0.0516968H51.7804L54.1611 0.0561302L54.1123 22.9214C54.1018 24.7285 53.6684 26.508 52.8466 28.1174C51.3827 31.0588 48.8123 33.3 45.6988 34.3495C42.5854 35.3991 39.1828 35.1716 36.2368 33.7168L37.2454 31.3383C37.4662 30.85 37.849 30.453 38.3289 30.2147C38.8088 29.9763 39.3564 29.9112 39.8789 30.0304C40.4121 30.1561 40.9581 30.22 41.5059 30.221C42.5144 30.2559 43.5197 30.0909 44.4641 29.7355C45.4084 29.3801 46.2731 28.8413 47.0083 28.1502C47.7435 27.4591 48.3347 26.6293 48.7478 25.7087C49.1609 24.7881 49.3877 23.7949 49.4151 22.7862V22.3429C47.2059 24.0721 44.4797 25.0089 41.6742 25.0028C38.8687 24.9968 36.1465 24.0483 33.9448 22.3096C32.6563 21.2978 31.5803 20.0414 30.7786 18.6127C29.9769 17.1839 29.4652 15.6109 29.273 13.9839C29.0808 12.3569 29.2118 10.708 29.6584 9.13176C30.1051 7.55552 30.8587 6.08301 31.8759 4.79874C32.8931 3.51447 34.1539 2.44373 35.5859 1.64798C37.018 0.85222 38.5931 0.347113 40.2209 0.161648C41.8487 -0.0238171 43.497 0.114011 45.0714 0.567221C46.6458 1.02043 48.1151 1.7801 49.3952 2.80263V2.49007C49.3885 1.90202 49.5946 1.33138 49.9755 0.883298C50.3564 0.435212 50.8864 0.139872 51.4678 0.0516968ZM37.3491 19.0008C38.6215 19.8565 40.1189 20.316 41.6522 20.3212V20.3124C45.9127 20.3212 49.3641 16.8211 49.4373 12.6248V12.5628C49.4373 11.0294 48.9829 9.53047 48.1316 8.25518C47.2802 6.97989 46.0701 5.98546 44.654 5.39747C43.2379 4.80947 41.6792 4.65429 40.175 4.9515C38.6707 5.24871 37.2883 5.985 36.2022 7.06738C35.1161 8.14976 34.3751 9.5297 34.0727 11.0329C33.7703 12.5362 33.9202 14.0953 34.5033 15.5134C35.0865 16.9316 36.0768 18.1451 37.3491 19.0008Z" fill="#00CCFF"/>
</svg>
