<svg width="197" height="32" viewBox="0 0 197 32" fill="none" xmlns="http://www.w3.org/2000/svg">
<path d="M185.351 23.1235H135.436C129.004 23.1235 123.787 17.9962 123.787 11.6732C123.787 5.3502 129.004 0.2229 135.436 0.2229H185.351C191.784 0.2229 197 5.3502 197 11.6732C197 17.9962 191.784 23.1235 185.351 23.1235Z" fill="#F3008A"/>
<path d="M74.1817 3.48574C78.6557 7.96453 78.635 15.1792 74.0786 19.5769C69.5221 23.9747 62.1823 23.9544 57.7083 19.4756C53.2343 14.9968 53.2549 7.78213 57.8114 3.38441C60.0381 1.27675 62.9451 0.0810547 65.9759 0.0810547C69.0479 0.101321 72.0168 1.31728 74.1817 3.48574ZM58.7804 11.5313C58.7804 15.4832 62.0174 18.6447 65.9965 18.6447C70.0169 18.6447 73.2333 15.4629 73.2333 11.5516C73.2333 7.59974 69.9963 4.43824 66.0172 4.43824C61.9967 4.43824 58.7804 7.57947 58.7804 11.5313Z" fill="#00CCFF"/>
<path d="M21.0505 0C19.8341 0 18.8857 0.972768 18.8238 2.16846V2.51298C13.8344 -1.43889 6.49456 -0.60798 2.51539 4.31666C-1.46379 9.24129 -0.659704 16.456 4.4122 20.3471C8.59754 23.6099 14.5972 23.6301 18.8032 20.3876V22.4547H23.1741L23.2153 0H21.0505ZM11.5665 18.5231C7.54605 18.5231 4.35034 15.3616 4.35034 11.4098C4.35034 7.45788 7.56667 4.31666 11.5252 4.27612C15.4838 4.23559 18.7413 7.43762 18.7413 11.3895V11.4503C18.8032 15.3414 15.525 18.5434 11.5665 18.5231Z" fill="#00CCFF"/>
<path d="M93.2322 0.162109C90.552 0.162109 88.0366 1.07408 85.9543 2.67509V2.33057V0.162109H83.7482C82.5318 0.162109 81.5421 1.13488 81.5215 2.33057L81.4803 22.6574H85.8512L85.8718 11.6124C85.8718 7.72132 89.0881 4.5193 93.1085 4.5193C94.325 4.5193 95.3146 3.60733 95.3352 2.41163V2.35084V0.182375L93.2322 0.162109Z" fill="#00CCFF"/>
<path d="M117.293 0.202637C116.076 0.202637 115.128 1.1754 115.066 2.3711V2.71562C110.056 -1.17545 102.716 -0.405343 98.7577 4.58009C94.7785 9.50473 95.5826 16.7194 100.655 20.6105C104.84 23.8733 110.84 23.8936 115.045 20.6308V22.6979H119.416L119.458 0.202637H117.293ZM107.809 18.746C103.788 18.746 100.593 15.5845 100.593 11.6327C100.593 7.68079 103.809 4.53956 107.829 4.53956C111.85 4.53956 115.045 7.70105 115.045 11.6529V11.7137C115.045 15.544 111.829 18.746 107.809 18.746Z" fill="#00CCFF"/>
<path d="M48.2037 0.060791H47.915C46.8017 0.222919 45.9976 1.13489 45.9976 2.29005V2.57377C40.9876 -1.37809 33.7096 -0.547189 29.7304 4.37745C25.7512 9.30209 26.5553 16.5168 31.6272 20.4079C35.8126 23.6707 41.8123 23.6909 46.0182 20.4484V20.8537C45.8945 24.7448 42.6163 27.7847 38.6578 27.6428C38.1423 27.6428 37.6681 27.582 37.1527 27.4604C36.1631 27.2375 35.1116 27.7441 34.6992 28.6561L33.7714 30.8246C39.4825 33.5808 46.41 31.311 49.2139 25.6973C49.9768 24.2179 50.3891 22.6168 50.3891 20.955L50.4304 0.060791H48.2037ZM38.7815 18.5839C34.7611 18.5839 31.5654 15.4224 31.5654 11.4705C31.5654 7.51868 34.7817 4.37745 38.8021 4.37745C42.8225 4.37745 46.0182 7.53894 46.0182 11.4908V11.5516C45.9564 15.4022 42.74 18.6042 38.7815 18.5839Z" fill="#00CCFF"/>
<path d="M138.343 16.9018C136.941 15.5035 136.261 13.7809 136.261 11.7137C136.261 9.64659 136.941 7.92398 138.343 6.54589C139.745 5.14754 141.518 4.4585 143.642 4.4585C144.92 4.4585 146.116 4.76249 147.209 5.3502C148.302 5.93791 149.147 6.74855 149.765 7.76185L146.631 9.52499C146.095 8.55223 144.961 7.94425 143.642 7.94425C142.508 7.94425 141.601 8.30903 140.9 8.99808C140.219 9.68712 139.869 10.5788 139.869 11.7137C139.869 12.8486 140.219 13.7606 140.9 14.4496C141.601 15.1387 142.508 15.4832 143.642 15.4832C144.961 15.4832 146.095 14.8955 146.631 13.8822L149.765 15.6656C148.528 17.7125 146.219 18.9689 143.642 18.9689C141.518 18.9689 139.745 18.2799 138.343 16.9018Z" fill="white"/>
<path d="M154.817 15.24H159.682V18.6852H151.188V4.76251H154.796V15.24H154.817Z" fill="white"/>
<path d="M160.631 4.76251H164.239V13.7606C164.239 14.936 164.899 15.5035 166.218 15.5035C167.538 15.5035 168.197 14.936 168.197 13.7606V4.76251H171.805V14.1051C171.805 15.5845 171.29 16.7397 170.239 17.6314C169.208 18.5231 167.847 18.969 166.218 18.969C164.589 18.969 163.229 18.5231 162.177 17.6314C161.146 16.7397 160.631 15.5643 160.631 14.1051V4.76251Z" fill="white"/>
<path d="M184.856 14.6118C184.856 15.848 184.423 16.841 183.557 17.5706C182.691 18.3002 181.537 18.6852 180.094 18.6852H174.135V4.76251H179.723C182.547 4.76251 184.382 6.2622 184.382 8.71438C184.382 9.88981 183.929 10.8018 183.063 11.4706C184.279 12.1799 184.856 13.2134 184.856 14.6118ZM177.764 7.94427V10.133H179.619C180.259 10.133 180.774 9.72768 180.774 9.03864C180.774 8.39012 180.279 7.94427 179.619 7.94427H177.764ZM180.011 15.5035C180.733 15.5035 181.248 15.0171 181.248 14.3281C181.248 13.6187 180.733 13.1526 180.011 13.1526H177.764V15.5035H180.011Z" fill="white"/>
</svg>
