<svg width="286" height="35" viewBox="0 0 286 35" fill="none" xmlns="http://www.w3.org/2000/svg">
<path d="M79.7155 3.81861C82.0359 6.16583 83.3289 9.33871 83.31 12.6393C83.2911 15.9398 81.9618 19.0977 79.6146 21.4181C77.2674 23.7386 74.0945 25.0316 70.794 25.0127C67.4934 24.9938 64.3355 23.6645 62.0151 21.3173C57.2048 16.4206 57.2203 8.52911 62.117 3.71664C64.4618 1.41095 67.6156 0.114113 70.9041 0.103414C72.5481 0.102709 74.1757 0.431058 75.6909 1.06911C77.2061 1.70717 78.5782 2.64203 79.7265 3.81861H79.7155ZM63.1611 12.6145C63.1611 14.1479 63.6155 15.647 64.467 16.9223C65.3184 18.1977 66.5287 19.1921 67.9449 19.78C69.3612 20.3679 70.9199 20.523 72.4242 20.2256C73.9286 19.9282 75.311 19.1917 76.397 18.1091C77.483 17.0265 78.2239 15.6464 78.526 14.143C78.8281 12.6396 78.6779 11.0804 78.0944 9.66231C77.511 8.24422 76.5203 7.03084 75.2477 6.1754C73.975 5.31997 72.4774 4.86085 70.944 4.85603C69.9231 4.85282 68.9116 5.05113 67.9674 5.43959C67.0233 5.82805 66.1652 6.39903 65.4421 7.11979C64.7191 7.84055 64.1454 8.69692 63.754 9.63981C63.3626 10.5827 63.1611 11.5936 63.1611 12.6145Z" fill="#00CCFF"/>
<path d="M22.605 0C21.2883 0 20.2841 1.05958 20.2199 2.37409V2.75093C18.3868 1.29296 16.1799 0.381074 13.8523 0.11983C11.5247 -0.141414 9.17066 0.258559 7.05997 1.27389C4.94929 2.28922 3.16745 3.8788 1.91876 5.86038C0.670069 7.84196 0.00507736 10.1353 2.89595e-05 12.4775C-0.00501944 14.8197 0.65008 17.1159 1.89022 19.1029C3.13035 21.0898 4.90532 22.6871 7.01161 23.7115C9.1179 24.7359 11.4702 25.146 13.7989 24.8948C16.1276 24.6436 18.3384 23.7412 20.1777 22.2912V24.5456H24.8749L24.9215 0H22.605ZM12.4082 20.2695C11.386 20.274 10.3732 20.0755 9.42827 19.6856C8.48338 19.2958 7.62525 18.7223 6.9036 17.9984C6.18196 17.2745 5.61116 16.4145 5.22426 15.4684C4.83737 14.5223 4.64209 13.5088 4.64972 12.4867C4.64846 10.4279 5.46044 8.452 6.90892 6.98899C8.3574 5.52598 10.3251 4.69432 12.3838 4.67503C16.6443 4.62183 20.1423 8.13531 20.1423 12.4579V12.5199C20.1481 13.5373 19.9527 14.5457 19.5672 15.4872C19.1817 16.4287 18.6139 17.2846 17.8962 18.0057C17.1786 18.7268 16.3255 19.2989 15.3859 19.6889C14.4463 20.079 13.4388 20.2793 12.4215 20.2784" fill="#00CCFF"/>
<path d="M100.212 0.172847C97.3668 0.180196 94.6067 1.14445 92.3759 2.91048V2.53585V0.155114H89.9952C89.3642 0.153936 88.7585 0.403331 88.3112 0.848496C87.864 1.29366 87.6118 1.89818 87.61 2.5292L87.5612 24.7627H92.2584L92.2851 12.6751C92.285 11.6541 92.4865 10.6433 92.8779 9.70038C93.2694 8.75749 93.843 7.90112 94.5661 7.18036C95.2891 6.4596 96.1473 5.88862 97.0914 5.50016C98.0355 5.1117 99.047 4.91339 100.068 4.91659C100.376 4.92575 100.684 4.8733 100.972 4.76232C101.26 4.65134 101.523 4.48406 101.746 4.27024C101.968 4.05643 102.146 3.80038 102.269 3.51704C102.391 3.23371 102.456 2.92879 102.46 2.62009V2.55802V0.177281L100.212 0.172847Z" fill="#00CCFF"/>
<path d="M126.062 0.23267C124.747 0.23267 123.743 1.29225 123.679 2.60676V2.9836C121.841 1.52663 119.63 0.616613 117.299 0.357746C114.969 0.0988791 112.612 0.501628 110.499 1.51988C108.387 2.53812 106.604 4.13071 105.354 6.11527C104.105 8.09984 103.439 10.3962 103.434 12.7413C103.429 15.0864 104.085 17.3856 105.326 19.3755C106.567 21.3654 108.343 22.9657 110.451 23.993C112.559 25.0203 114.914 25.4332 117.246 25.1843C119.578 24.9355 121.793 24.035 123.637 22.5859V24.8425H128.332L128.387 0.237103L126.062 0.23267ZM115.865 20.5044C114.331 20.4983 112.834 20.0378 111.562 19.1811C110.29 18.3243 109.3 17.1098 108.718 15.691C108.136 14.2721 107.987 12.7126 108.291 11.2094C108.595 9.70611 109.337 8.32661 110.425 7.24511C111.512 6.16362 112.896 5.42865 114.4 5.13305C115.905 4.83744 117.464 4.99447 118.88 5.58429C120.295 6.17411 121.504 7.17026 122.354 8.44691C123.204 9.72355 123.657 11.2234 123.654 12.757V12.8191C123.636 14.8683 122.807 16.8269 121.349 18.2672C119.891 19.7075 117.923 20.5126 115.874 20.5066" fill="#00CCFF"/>
<path d="M51.7804 0.0516968H51.4678C50.8864 0.139872 50.3564 0.435212 49.9755 0.883298C49.5946 1.33138 49.3885 1.90202 49.3952 2.49007V2.80263C48.1151 1.7801 46.6458 1.02043 45.0714 0.567221C43.497 0.114011 41.8487 -0.0238171 40.2209 0.161648C38.5931 0.347113 37.018 0.85222 35.5859 1.64798C34.1539 2.44373 32.8931 3.51447 31.8759 4.79874C30.8587 6.08301 30.1051 7.55552 29.6584 9.13176C29.2118 10.708 29.0808 12.3569 29.273 13.9839C29.4652 15.6109 29.9769 17.1839 30.7786 18.6127C31.5803 20.0414 32.6563 21.2978 33.9447 22.3096C36.1465 24.0483 38.8687 24.9968 41.6742 25.0028C44.4797 25.0089 47.2059 24.0721 49.4151 22.3429V22.7862C49.3877 23.7949 49.1608 24.7881 48.7478 25.7087C48.3347 26.6293 47.7435 27.4591 47.0083 28.1502C46.2731 28.8413 45.4084 29.3801 44.4641 29.7355C43.5197 30.0909 42.5144 30.2559 41.5059 30.221C40.9581 30.22 40.4121 30.1561 39.8789 30.0304C39.3564 29.9112 38.8088 29.9763 38.3289 30.2147C37.849 30.453 37.4662 30.85 37.2454 31.3383L36.2368 33.7168C39.1828 35.1716 42.5854 35.3991 45.6988 34.3495C48.8123 33.3 51.3827 31.0588 52.8466 28.1174C53.6684 26.508 54.1018 24.7285 54.1123 22.9214L54.1611 0.0561302L51.7804 0.0516968ZM41.6522 20.3212C40.1189 20.316 38.6215 19.8565 37.3491 19.0008C36.0768 18.1451 35.0865 16.9316 34.5033 15.5134C33.9202 14.0953 33.7703 12.5362 34.0727 11.0329C34.3751 9.5297 35.1161 8.14976 36.2022 7.06738C37.2883 5.985 38.6707 5.24871 40.175 4.9515C41.6792 4.65429 43.2379 4.80947 44.654 5.39747C46.0701 5.98546 47.2802 6.97989 48.1316 8.25518C48.9829 9.53047 49.4373 11.0294 49.4373 12.5628V12.6248C49.3641 16.8211 45.9127 20.3212 41.6522 20.3124" fill="#00CCFF"/>
<rect x="133.053" y="0.11507" width="152.947" height="25.0454" rx="12.5227" fill="#054DFF"/>
<path d="M158.262 20.1109L153.114 4.96942H148.702L143.553 20.1109H147.339L148.096 17.7315H153.72L154.477 20.1109H158.262ZM150.908 8.92783L152.682 14.4869H149.134L150.908 8.92783Z" fill="white"/>
<path d="M167.773 10.7664H163.014V4.96942H159.553V20.1109H163.014V14.0976H167.773V20.1109H171.234V4.96942H167.773V10.7664Z" fill="white"/>
<path d="M186.638 18.1425C188.174 16.6283 188.931 14.7681 188.931 12.5401C188.931 10.3122 188.174 8.45196 186.638 6.93781C185.103 5.42367 183.242 4.6666 181.058 4.6666C178.873 4.6666 177.013 5.42367 175.477 6.93781C173.941 8.45196 173.184 10.3122 173.184 12.5401C173.184 14.7681 173.941 16.6283 175.477 18.1425C177.013 19.6566 178.873 20.4137 181.058 20.4137C183.242 20.4137 185.103 19.6566 186.638 18.1425ZM177.9 15.7847C177.056 14.9411 176.645 13.8596 176.645 12.5401C176.645 11.2207 177.056 10.1391 177.9 9.29555C178.743 8.45196 179.803 8.04098 181.058 8.04098C182.312 8.04098 183.35 8.45196 184.194 9.29555C185.038 10.1391 185.47 11.2207 185.47 12.5401C185.47 13.8596 185.038 14.9411 184.194 15.7847C183.35 16.6283 182.312 17.0393 181.058 17.0393C179.803 17.0393 178.743 16.6283 177.9 15.7847Z" fill="white"/>
<path d="M202.56 20.1109L199.337 14.5518C201.003 13.6866 202.128 11.9994 202.128 10.1608C202.128 8.71153 201.63 7.50021 200.614 6.48357C199.597 5.46693 198.386 4.96942 196.936 4.96942H190.88V20.1109H194.341V15.1358H195.985L198.84 20.1109H202.56ZM196.936 8.21402C197.888 8.21402 198.667 9.05762 198.667 10.1608C198.667 11.2639 197.888 12.1075 196.936 12.1075H194.341V8.21402H196.936Z" fill="white"/>
<path d="M215.868 20.1109L212.645 14.5518C214.311 13.6866 215.436 11.9994 215.436 10.1608C215.436 8.71153 214.938 7.50021 213.921 6.48357C212.905 5.46693 211.693 4.96942 210.244 4.96942H204.188V20.1109H207.649V15.1358H209.293L212.148 20.1109H215.868ZM210.244 8.21402C211.196 8.21402 211.975 9.05762 211.975 10.1608C211.975 11.2639 211.196 12.1075 210.244 12.1075H207.649V8.21402H210.244Z" fill="white"/>
<path d="M230.907 20.1109L225.758 4.96942H221.346L216.198 20.1109H219.983L220.74 17.7315H226.364L227.121 20.1109H230.907ZM223.552 8.92783L225.326 14.4869H221.778L223.552 8.92783Z" fill="white"/>
<path d="M243.878 4.96942L239.768 11.6966L235.659 4.96942H232.198V20.1109H235.659V11.3072L239.574 17.7315H239.963L243.878 11.3072V20.1109H247.339V4.96942H243.878Z" fill="white"/>
<path d="M263.353 20.1109L258.204 4.96942H253.792L248.644 20.1109H252.429L253.186 17.7315H258.81L259.567 20.1109H263.353ZM255.998 8.92783L257.772 14.4869H254.224L255.998 8.92783Z" fill="white"/>
<path d="M269.626 20.4137C271.292 20.4137 272.655 20.0027 273.693 19.1808C274.731 18.3372 275.25 17.2124 275.25 15.7631C275.25 14.5302 274.753 13.5352 274.212 12.9511C273.952 12.6483 273.563 12.3671 273.044 12.1075C272.546 11.8263 272.114 11.6317 271.789 11.5235L270.383 11.0693C269.28 10.7448 268.545 10.442 268.177 10.1608C267.831 9.87958 267.658 9.55512 267.658 9.1874C267.658 8.56011 268.242 8.04098 269.28 8.04098C270.6 8.04098 271.357 8.64663 271.897 9.79306L274.818 8.08424C273.714 5.85628 271.768 4.6666 269.28 4.6666C267.896 4.6666 266.706 5.07758 265.689 5.92117C264.694 6.76477 264.197 7.86793 264.197 9.27392C264.197 10.6583 264.694 11.7398 265.581 12.4536C266.511 13.1458 267.377 13.5352 268.653 13.8812C269.864 14.2057 270.686 14.5085 271.119 14.7681C271.573 15.006 271.789 15.3521 271.789 15.8064C271.789 16.6283 271.097 17.0393 269.734 17.0393C268.22 17.0393 267.16 16.3471 266.555 14.9412L263.57 16.6716C264.435 18.9861 266.533 20.4137 269.626 20.4137Z" fill="white"/>
<path d="M256.735 4.31492L258.922 2.56485H255.529L254.021 4.31492H256.735Z" fill="white"/>
</svg>
