<svg width="167" height="48" viewBox="0 0 167 48" fill="none" xmlns="http://www.w3.org/2000/svg">
<path d="M89.0798 10.0835C97.2815 10.0835 103.229 16.1982 103.229 24.4351C103.229 32.672 97.2815 38.7866 89.0798 38.7866C87.1629 38.8147 85.2607 38.449 83.4911 37.7121C81.7216 36.9752 80.1226 35.8828 78.7932 34.5028V48H74.4578V10.6859H77.4414L78.3045 14.891C79.6387 13.3515 81.2948 12.1231 83.1559 11.2924C85.0169 10.4618 87.0378 10.0491 89.0759 10.0835H89.0798ZM88.7527 34.5973C94.5897 34.5973 98.8462 30.2663 98.8462 24.4351C98.8462 18.6039 94.5897 14.2728 88.7527 14.2728C82.9157 14.2728 78.608 18.6433 78.608 24.4351C78.608 30.2269 82.9433 34.5973 88.7527 34.5973Z" fill="#F52337"/>
<path d="M135.173 10.6859V38.1842H131.582L131.125 34.0185C128.591 36.9794 124.795 38.7866 120.326 38.7866C112.187 38.7866 106.082 32.6247 106.082 24.4351C106.082 16.2454 112.187 10.0835 120.326 10.0835C124.827 10.0835 128.646 11.9065 131.184 14.9028L131.724 10.6859H135.173ZM130.747 24.4351C130.747 18.5881 126.49 14.2728 120.653 14.2728C114.816 14.2728 110.508 18.6472 110.508 24.4351C110.508 30.2229 114.824 34.5973 120.653 34.5973C126.482 34.5973 130.747 30.2859 130.747 24.4351Z" fill="#F52337"/>
<path d="M166.588 10.6859L153.492 39.3221C150.524 45.8344 147.903 47.9842 142.708 47.9842H140.091V44.0745H142.314C145.995 44.0745 147.296 42.9484 149.511 38.3535L150.5 36.2943L138.255 10.6702H142.984L152.77 31.4829L161.985 10.6702L166.588 10.6859Z" fill="#F52337"/>
<path d="M56.8838 21.3403V38.011H48.7294V22.5333C48.7294 19.1669 46.609 17.592 43.9999 17.592C41.0125 17.592 38.9473 19.3323 38.9473 23.1869V38.011H30.7928V0H38.9473V13.4105C40.4134 11.4025 43.1329 10.0993 46.7194 10.0993C52.2017 10.0993 56.8838 14.009 56.8838 21.3403Z" fill="#F52337"/>
<path d="M14.3658 10.0835C11.5245 10.0835 8.74705 10.9252 6.3846 12.5022C4.02215 14.0791 2.18085 16.3205 1.09354 18.943C0.00622124 21.5654 -0.278265 24.451 0.276043 27.2349C0.830351 30.0188 2.19856 32.5761 4.20765 34.5832C6.21675 36.5903 8.77649 37.9571 11.5632 38.5109C14.3499 39.0646 17.2384 38.7804 19.8634 37.6942C22.4884 36.6079 24.732 34.7685 26.3106 32.4084C27.8891 30.0483 28.7316 27.2735 28.7316 24.4351C28.7316 20.6288 27.2181 16.9784 24.524 14.287C21.8299 11.5955 18.1759 10.0835 14.3658 10.0835ZM14.3658 30.8372C13.0982 30.8379 11.8588 30.4631 10.8044 29.7601C9.75001 29.0571 8.92802 28.0575 8.44237 26.8878C7.95673 25.718 7.82925 24.4306 8.07608 23.1885C8.32291 21.9463 8.93294 20.8052 9.82902 19.9095C10.7251 19.0137 11.867 18.4036 13.1102 18.1563C14.3534 17.9089 15.6422 18.0355 16.8134 18.5199C17.9846 19.0044 18.9857 19.8249 19.69 20.8778C20.3944 21.9307 20.7703 23.1687 20.7703 24.4351C20.7703 26.1323 20.0957 27.7601 18.8947 28.9606C17.6938 30.1612 16.0648 30.8361 14.3658 30.8372Z" fill="#F52337"/>
<path d="M58.6496 33.6248C58.6473 32.6048 58.9479 31.607 59.5136 30.7578C60.0792 29.9086 60.8844 29.2462 61.8271 28.8544C62.7698 28.4626 63.8077 28.3591 64.8094 28.5569C65.811 28.7548 66.7314 29.2451 67.4539 29.9658C68.1764 30.6865 68.6687 31.6052 68.8682 32.6056C69.0678 33.6059 68.9658 34.6429 68.575 35.5853C68.1843 36.5277 67.5225 37.3331 66.6733 37.8994C65.8241 38.4658 64.8258 38.7677 63.8047 38.767C62.4414 38.7587 61.1362 38.2146 60.1714 37.2522C59.2066 36.2899 58.6599 34.9868 58.6496 33.6248Z" fill="#F52337"/>
<path d="M58.9215 14.0878V1.31901C58.9215 0.972324 59.0594 0.639834 59.3048 0.394688C59.5501 0.149542 59.883 0.0118235 60.23 0.0118235H67.3833C67.7304 0.0118235 68.0632 0.149542 68.3086 0.394688C68.554 0.639834 68.6918 0.972324 68.6918 1.31901V14.0878C68.6959 14.1455 68.6959 14.2033 68.6918 14.261L67.2257 25.2462C67.1837 25.559 67.0295 25.8459 66.7918 26.0537C66.554 26.2615 66.2489 26.3761 65.933 26.3762H61.6922C61.3763 26.3761 61.0711 26.2615 60.8334 26.0537C60.5956 25.8459 60.4415 25.559 60.3995 25.2462L58.9333 14.261C58.9253 14.2036 58.9214 14.1457 58.9215 14.0878Z" fill="#F52337"/>
</svg>
