<svg width="32" height="32" viewBox="0 0 32 32" fill="none" xmlns="http://www.w3.org/2000/svg">
<path fill-rule="evenodd" clip-rule="evenodd" d="M22.2518 7.9333H9.75364C9.25823 7.93022 8.76674 8.02288 8.30706 8.2063C7.84654 8.39007 7.42656 8.66151 7.07146 9.00574C6.71633 9.34999 6.43304 9.76033 6.23843 10.2137C6.04381 10.667 5.94187 11.1541 5.93882 11.6469V17.8796C5.93512 17.9094 5.93323 17.9397 5.93323 17.9702V20.3474L5.93324 20.3517C5.93614 20.8447 6.03795 21.3318 6.2325 21.7853C6.42704 22.2388 6.71031 22.6493 7.06545 22.9936C7.42057 23.338 7.8406 23.6095 8.3012 23.7934C8.76093 23.9769 9.25249 24.0696 9.74799 24.0665H22.2519C22.7474 24.0694 23.2389 23.9766 23.6985 23.7931C24.1591 23.6092 24.579 23.3377 24.9341 22.9934C25.2892 22.6491 25.5724 22.2387 25.767 21.7853C25.9616 21.3319 26.0635 20.8448 26.0666 20.352L26.0666 11.6514L26.0665 11.6467C26.0633 11.1539 25.9613 10.667 25.7667 10.2137C25.572 9.76047 25.2887 9.35021 24.9337 9.00601C24.5786 8.66183 24.1587 8.3904 23.6983 8.20659C23.2387 8.02311 22.7472 7.93035 22.2518 7.9333Z" fill="#00B0FF"/>
<path fill-rule="evenodd" clip-rule="evenodd" d="M9.48752 12.9147C9.09757 12.9147 8.78145 13.2308 8.78145 13.6208C8.78145 14.0107 9.09757 14.3268 9.48752 14.3268H22.4943C22.8842 14.3268 23.2003 14.0107 23.2003 13.6208C23.2003 13.2308 22.8842 12.9147 22.4943 12.9147H9.48752ZM9.48003 18.8057C9.09008 18.8057 8.77397 19.1218 8.77397 19.5117C8.77397 19.9017 9.09008 20.2178 9.48003 20.2178H13.1189C13.5089 20.2178 13.825 19.9017 13.825 19.5117C13.825 19.1218 13.5089 18.8057 13.1189 18.8057H9.48003Z" fill="#F8F8F8"/>
</svg>
