<svg width="32" height="32" viewBox="0 0 32 32" fill="none" xmlns="http://www.w3.org/2000/svg">
<path fill-rule="evenodd" clip-rule="evenodd" d="M22.2522 7.9333H9.75401C9.25859 7.93022 8.76711 8.02288 8.30743 8.2063C7.84691 8.39007 7.42693 8.66151 7.07183 9.00574C6.7167 9.34999 6.4334 9.76033 6.2388 10.2137C6.04418 10.667 5.94225 11.1541 5.9392 11.6469L5.93919 11.6469V11.6514V17.8796C5.93549 17.9094 5.93359 17.9397 5.93359 17.9702V20.3474L5.93361 20.3517C5.9365 20.8447 6.03832 21.3318 6.23287 21.7853C6.42741 22.2388 6.71067 22.6493 7.06582 22.9936C7.42094 23.338 7.84097 23.6095 8.30156 23.7934C8.7613 23.9769 9.25286 24.0696 9.74836 24.0665H22.2523C22.7478 24.0694 23.2392 23.9766 23.6989 23.7931C24.1594 23.6092 24.5794 23.3377 24.9344 22.9934C25.2895 22.6491 25.5728 22.2387 25.7674 21.7853C25.962 21.3319 26.0639 20.8448 26.0669 20.352H26.0669V20.3474L26.0669 11.6514L26.0669 11.6467C26.0637 11.1539 25.9617 10.667 25.767 10.2137C25.5724 9.76047 25.2891 9.35021 24.934 9.00601C24.579 8.66183 24.1591 8.3904 23.6986 8.20659C23.239 8.02311 22.7476 7.93035 22.2522 7.9333ZM7.40026 20.3451V18.0654C7.40396 18.0356 7.40586 18.0053 7.40586 17.9748V11.6539C7.40797 11.3582 7.46923 11.0655 7.58653 10.7922C7.70412 10.5183 7.87588 10.269 8.09267 10.0588C8.30948 9.84865 8.56706 9.68182 8.851 9.56852C9.13496 9.45521 9.43931 9.39783 9.74653 9.39995V9.39997H9.7516H22.2545L22.2594 9.39995C22.5666 9.39792 22.8709 9.45537 23.1549 9.56873C23.4388 9.68207 23.6964 9.84891 23.9132 10.0591C24.13 10.2692 24.3018 10.5186 24.4194 10.7925C24.5367 11.0656 24.598 11.3582 24.6003 11.6539V20.345C24.5981 20.6407 24.5369 20.9335 24.4196 21.2068C24.302 21.4808 24.1302 21.7302 23.9134 21.9405C23.6966 22.1507 23.439 22.3176 23.155 22.431C22.871 22.5444 22.5666 22.6019 22.2594 22.5998V22.5998H22.2545L9.746 22.5998L9.74094 22.5998C9.43366 22.602 9.12925 22.5446 8.84524 22.4312C8.56125 22.3179 8.30365 22.151 8.08682 21.9407C7.87003 21.7305 7.69828 21.4811 7.58073 21.2071C7.46346 20.9337 7.40227 20.6409 7.40026 20.3451ZM8.75456 13.6207C8.75456 13.2157 9.08288 12.8873 9.48789 12.8873H22.4947C22.8997 12.8873 23.228 13.2157 23.228 13.6207C23.228 14.0257 22.8997 14.354 22.4947 14.354H9.48789C9.08288 14.354 8.75456 14.0257 8.75456 13.6207ZM8.74707 19.5116C8.74707 19.1066 9.07539 18.7783 9.4804 18.7783H13.1193C13.5243 18.7783 13.8526 19.1066 13.8526 19.5116C13.8526 19.9166 13.5243 20.2449 13.1193 20.2449H9.4804C9.07539 20.2449 8.74707 19.9166 8.74707 19.5116Z" fill="#B1B3B9"/>
</svg>
