<svg width="38" height="12" viewBox="0 0 38 12" fill="none" xmlns="http://www.w3.org/2000/svg">
<path d="M32.035 0H6.46502C3.17063 0 0.5 2.68629 0.5 6C0.5 9.31371 3.17063 12 6.46502 12H32.035C35.3294 12 38 9.31371 38 6C38 2.68629 35.3294 0 32.035 0Z" fill="#FF7800"/>
<path d="M6.02393 7.96544L7.61741 7.03803C7.88866 7.68393 8.36741 8.00687 9.05367 8.00687C9.62733 8.00687 9.90353 7.84009 9.90353 7.51714C9.90353 7.2983 9.73674 7.13258 9.41486 6.9966C9.27888 6.94455 8.96656 6.85106 8.49808 6.71615C7.16486 6.33053 6.332 5.68463 6.332 4.43534C6.32141 4.12631 6.38056 3.81887 6.50507 3.53583C6.62957 3.2528 6.81623 3.00144 7.05119 2.80043C7.53986 2.384 8.14184 2.17578 8.85714 2.17578C10.0756 2.17578 11.0646 2.759 11.5639 3.8415L10.0023 4.75829C9.77393 4.2165 9.39893 3.94561 8.86776 3.94561C8.41946 3.94561 8.19106 4.1432 8.19106 4.42472C8.19106 4.74342 8.45133 4.92507 9.44036 5.21615C9.73434 5.29804 10.0234 5.39664 10.3061 5.51148C10.5542 5.62042 10.7912 5.75312 11.0137 5.90772C11.5236 6.24129 11.7743 6.78201 11.7743 7.50121C11.7743 8.2204 11.5236 8.77599 11.0137 9.17755C10.5037 9.57911 9.83767 9.78095 9.00374 9.78095C7.46125 9.7767 6.42973 9.07982 6.02393 7.96544Z" fill="white"/>
<path d="M16.5085 2.33203H18.3612V9.62063H16.5085V6.82035H14.4571V9.62063H12.5928V2.33203H14.4571V5.02927H16.5085V2.33203Z" fill="white"/>
<path d="M23.0731 9.77683C22.5697 9.78788 22.0691 9.69671 21.6019 9.50882C21.1346 9.32093 20.7103 9.04023 20.3547 8.6837C19.9951 8.33216 19.7116 7.91051 19.5218 7.44489C19.3319 6.97927 19.2397 6.47962 19.2509 5.9769C19.2509 4.90396 19.6163 4.00842 20.3547 3.27966C21.0802 2.57192 22.0537 2.17578 23.0673 2.17578C24.0809 2.17578 25.0544 2.57192 25.7799 3.27966C26.1419 3.62791 26.4278 4.04736 26.6196 4.51158C26.8114 4.97581 26.9049 5.47473 26.8943 5.9769C26.8985 6.47914 26.8022 6.97714 26.6112 7.44165C26.4202 7.90616 26.1382 8.32781 25.7819 8.68181C25.4257 9.03582 25.0022 9.31505 24.5365 9.5031C24.0708 9.69114 23.5722 9.78421 23.07 9.77683H23.0731ZM23.0731 7.95495C23.3347 7.96345 23.5952 7.91801 23.8385 7.82147C24.0817 7.72493 24.3025 7.57936 24.4871 7.39381C24.6716 7.20826 24.816 6.9867 24.9112 6.74294C25.0064 6.49918 25.0505 6.23842 25.0406 5.9769C25.0467 5.71462 25.0003 5.45376 24.9041 5.20967C24.8079 4.96557 24.664 4.74316 24.4806 4.55551C24.2973 4.36785 24.0783 4.21874 23.8365 4.11694C23.5947 4.01513 23.335 3.96269 23.0726 3.96269C22.8103 3.96269 22.5506 4.01513 22.3088 4.11694C22.067 4.21874 21.848 4.36785 21.6646 4.55551C21.4813 4.74316 21.3373 4.96557 21.2411 5.20967C21.145 5.45376 21.0986 5.71462 21.1047 5.9769C21.0947 6.23851 21.1388 6.49936 21.2341 6.7432C21.3294 6.98704 21.4739 7.20864 21.6585 7.39421C21.8432 7.57977 22.0641 7.72533 22.3075 7.8218C22.5509 7.91827 22.8115 7.96359 23.0731 7.95495Z" fill="white"/>
<path d="M30.6154 2.333C30.9565 2.32365 31.2962 2.38233 31.6145 2.50563C31.9327 2.62892 32.2233 2.81436 32.4691 3.05113C32.7156 3.28716 32.9097 3.57236 33.0389 3.88823C33.1681 4.20409 33.2295 4.54358 33.2191 4.8847C33.2293 5.22562 33.1678 5.56489 33.0386 5.88055C32.9094 6.19622 32.7154 6.48125 32.4691 6.7172C32.2231 6.95377 31.9326 7.13909 31.6143 7.26237C31.2961 7.38565 30.9565 7.44445 30.6154 7.43533H29.6476V9.62159H27.7832V2.333H30.6154ZM30.6154 5.6655C31.0318 5.6655 31.359 5.34681 31.359 4.8847C31.3646 4.78429 31.3493 4.68382 31.3143 4.58956C31.2793 4.4953 31.2252 4.40928 31.1554 4.33689C31.0856 4.2645 31.0016 4.2073 30.9087 4.16885C30.8158 4.1304 30.7159 4.11154 30.6154 4.11345H29.6476V5.6655H30.6154Z" fill="white"/>
</svg>
