<svg width="32" height="32" viewBox="0 0 32 32" fill="none" xmlns="http://www.w3.org/2000/svg">
<path fill-rule="evenodd" clip-rule="evenodd" d="M7.02855 8.83446C7.24278 7.97467 8.00268 7.2666 8.95519 7.2666H22.9731C23.9346 7.2666 24.659 7.97859 24.9482 8.76043L24.9631 8.80058L25.9675 12.9459L26.0666 13.2471V13.3646C26.0666 14.2379 25.647 15.1313 25.0452 15.7953C24.9784 15.8689 24.9082 15.941 24.8349 16.0109C24.8453 16.0675 24.8507 16.1256 24.8507 16.1847V23.1516C24.8507 24.2466 23.9843 25.2623 22.7585 25.2623H18.5389C18.3518 25.2623 18.0773 25.2141 17.8559 24.9896C17.6363 24.767 17.591 24.4946 17.591 24.3115V20.5501H14.4089V24.3115C14.4089 24.4946 14.3635 24.767 14.1439 24.9896C13.9225 25.2141 13.6481 25.2623 13.461 25.2623H9.2413C8.13695 25.2623 7.14909 24.3697 7.14909 23.1516V16.1847C7.14909 16.1413 7.15202 16.0984 7.15769 16.0562C6.39902 15.3831 5.93323 14.3836 5.93323 13.2921V13.0535L7.02855 8.83446ZM22.544 16.9978C22.1259 16.9978 21.7381 16.9186 21.3848 16.7831C21.011 16.691 20.6493 16.5552 20.307 16.3857C20.0836 16.5083 19.8495 16.6105 19.6082 16.6922C19.1774 16.8922 18.697 16.9978 18.1812 16.9978C17.8412 16.9978 17.5212 16.9454 17.2235 16.8529C16.7712 16.7668 16.3325 16.614 15.9284 16.3943C15.7098 16.5131 15.4811 16.6124 15.2455 16.6922C14.8147 16.8922 14.3343 16.9978 13.8185 16.9978C13.4785 16.9978 13.1585 16.9454 12.8608 16.8529C12.4069 16.7665 11.9667 16.6129 11.5615 16.392C11.253 16.5552 10.919 16.6848 10.5715 16.7745C10.2172 16.8883 9.84465 16.9253 9.45583 16.9253C9.28908 16.9253 9.12576 16.9138 8.96646 16.8917C8.84924 16.8791 8.73232 16.8619 8.61575 16.8403V23.1516C8.61575 23.5283 8.91525 23.7956 9.2413 23.7956H12.9422V20.0342C12.9422 19.8512 12.9875 19.5787 13.2071 19.3561C13.4285 19.1317 13.703 19.0834 13.8901 19.0834H18.1098C18.2968 19.0834 18.5713 19.1317 18.7927 19.3561C19.0123 19.5787 19.0576 19.8512 19.0576 20.0342V23.7956H22.7585C23.1062 23.7956 23.3841 23.5064 23.3841 23.1516V16.8743C23.1174 16.9534 22.8362 16.9978 22.544 16.9978ZM23.9585 14.8103C23.7281 15.0644 23.4669 15.259 23.1964 15.3816C22.9714 15.428 22.7362 15.4514 22.4725 15.4514C22.2611 15.4514 22.0463 15.4273 21.8313 15.381C21.5276 15.2491 21.255 15.0367 21.025 14.7703L21.0091 14.7519L20.9919 14.7345C20.8774 14.6184 20.6651 14.4618 20.3626 14.4618C20.0601 14.4618 19.8478 14.6184 19.7333 14.7345L19.7013 14.7669L19.6735 14.8031C19.4998 15.0295 19.2943 15.2062 19.0579 15.3288C18.5875 15.4737 18.0763 15.5067 17.5872 15.4278C17.2357 15.3028 16.9218 15.071 16.6623 14.7703L16.6464 14.7519L16.6292 14.7345C16.5147 14.6184 16.3024 14.4618 15.9999 14.4618C15.6974 14.4618 15.4851 14.6184 15.3706 14.7345L15.3386 14.7669L15.3108 14.8031C15.1371 15.0295 14.9315 15.2062 14.6952 15.3288C14.2248 15.4737 13.7135 15.5067 13.2245 15.4278C12.9132 15.3171 12.6314 15.1226 12.3907 14.8707C12.3654 14.8199 12.3329 14.7686 12.2914 14.7186C12.1206 14.5124 11.8962 14.4461 11.7375 14.4336C11.4874 14.414 11.2802 14.5147 11.22 14.544L11.2184 14.5448C11.123 14.5911 11.0395 14.6445 10.9877 14.6794C10.9599 14.6981 10.9365 14.7148 10.9195 14.7272L10.8982 14.7428L10.8912 14.7482L10.8886 14.7501L10.8866 14.7516L10.8101 14.8103L10.7514 14.8868C10.5556 15.1421 10.3918 15.2656 10.2308 15.3372C10.208 15.3473 10.1842 15.3569 10.1591 15.3659C9.92958 15.4214 9.69217 15.4514 9.45586 15.4514C9.35928 15.4514 9.2623 15.4468 9.16488 15.4376C8.16738 15.2924 7.39989 14.4092 7.39989 13.2918V13.2408L8.44921 9.19916L8.45136 9.19048C8.52485 8.89251 8.76517 8.73327 8.95519 8.73327H22.9731C23.1501 8.73327 23.4154 8.88142 23.559 9.23421L24.5559 13.3483L24.5957 13.4692C24.563 13.8813 24.3426 14.3865 23.9585 14.8103ZM10.8866 14.7516L11.0631 14.9815L11.0631 14.9815C10.9951 14.8929 10.9533 14.8385 10.9276 14.805C10.8866 14.7516 10.8866 14.7516 10.8866 14.7516ZM16 13.5999C17.1046 13.5999 18 12.7045 18 11.5999C18 10.4954 17.1046 9.59993 16 9.59993C14.8954 9.59993 14 10.4954 14 11.5999C14 12.7045 14.8954 13.5999 16 13.5999Z" fill="#B1B3B9"/>
</svg>
