<svg width="32" height="32" viewBox="0 0 32 32" fill="none" xmlns="http://www.w3.org/2000/svg">
<path fill-rule="evenodd" clip-rule="evenodd" d="M24.2604 9.01494L25.2617 13.1472C25.2617 13.2197 25.2617 13.2922 25.3332 13.3647C25.2617 14.9596 24.0458 16.2645 22.5439 16.2645C21.6857 16.2645 20.9705 15.8295 20.4698 15.2496C20.3983 15.1771 20.3268 15.1771 20.2553 15.2496C19.7546 15.902 19.0394 16.2645 18.1812 16.2645C17.323 16.2645 16.6078 15.8295 16.1071 15.2496C16.0356 15.1771 15.9641 15.1771 15.8926 15.2496C15.3919 15.902 14.6767 16.2645 13.8185 16.2645C12.9602 16.2645 12.245 15.8295 11.7444 15.2496C11.6729 15.1771 11.5299 15.1771 11.5299 15.1771C11.0292 15.8295 10.314 16.192 9.45578 16.192C7.88234 16.192 6.6665 14.8871 6.6665 13.2922V13.1472L7.7393 9.01494C7.88234 8.43497 8.38298 8 8.95514 8H22.973C23.5452 8 24.0458 8.43497 24.2604 9.01494ZM20.3982 16.8444C21.0419 17.2069 21.7571 17.4244 22.4723 17.4244C22.9729 17.4244 23.402 17.3519 23.8312 17.2069C23.9742 17.1344 24.1172 17.2794 24.1172 17.4244V23.1515C24.1172 23.8765 23.5451 24.529 22.7584 24.529H18.5387C18.3957 24.529 18.3241 24.4565 18.3241 24.3115V20.0342C18.3241 19.8892 18.2526 19.8167 18.1096 19.8167H13.8899C13.7469 19.8167 13.6753 19.8892 13.6753 20.0342V24.3115C13.6753 24.4565 13.6038 24.529 13.4608 24.529H9.24112C8.52592 24.529 7.88224 23.949 7.88224 23.1515V17.4244C7.88224 17.2794 8.02528 17.1344 8.16832 17.2069C8.59744 17.3519 9.02656 17.4244 9.45568 17.4244C10.1709 17.4244 10.8861 17.2069 11.4582 16.8444C11.5298 16.7719 11.6013 16.7719 11.6728 16.8444C12.8886 17.6419 14.6051 17.6419 15.8209 16.8444C15.8925 16.7719 15.964 16.7719 16.0355 16.8444C17.2513 17.6419 18.9678 17.6419 20.1836 16.8444C20.2552 16.7719 20.3267 16.7719 20.3982 16.8444Z" fill="#FF7800"/>
<path d="M18.2912 11.6247C18.2912 12.8258 17.3306 13.7996 16.1456 13.7996C14.9606 13.7996 14 12.8258 14 11.6247C14 10.4236 14.9606 9.44983 16.1456 9.44983C17.3306 9.44983 18.2912 10.4236 18.2912 11.6247Z" fill="white"/>
</svg>
