<svg width="99" height="16" viewBox="0 0 99 16" fill="none" xmlns="http://www.w3.org/2000/svg">
<rect width="98.963" height="16" rx="8" fill="#054DFF"/>
<path d="M16.3114 12.9381L12.9804 3.14101H10.1252L6.79419 12.9381H9.24347L9.73332 11.3986H13.3723L13.8621 12.9381H16.3114ZM11.5528 5.70226L12.7004 9.2992H10.4051L11.5528 5.70226Z" fill="white"/>
<path d="M22.4652 6.89191H19.3861V3.14101H17.1468V12.9381H19.3861V9.04727H22.4652V12.9381H24.7045V3.14101H22.4652V6.89191Z" fill="white"/>
<path d="M34.6718 11.6645C35.6655 10.6848 36.1553 9.48114 36.1553 8.03957C36.1553 6.59799 35.6655 5.39435 34.6718 4.41464C33.6781 3.43492 32.4744 2.94507 31.0608 2.94507C29.6473 2.94507 28.4436 3.43492 27.4499 4.41464C26.4562 5.39435 25.9663 6.59799 25.9663 8.03957C25.9663 9.48114 26.4562 10.6848 27.4499 11.6645C28.4436 12.6442 29.6473 13.1341 31.0608 13.1341C32.4744 13.1341 33.6781 12.6442 34.6718 11.6645ZM29.0175 10.1389C28.4716 9.59311 28.2057 8.89332 28.2057 8.03957C28.2057 7.18582 28.4716 6.48602 29.0175 5.94019C29.5633 5.39435 30.2491 5.12843 31.0608 5.12843C31.8726 5.12843 32.5444 5.39435 33.0903 5.94019C33.6361 6.48602 33.916 7.18582 33.916 8.03957C33.916 8.89332 33.6361 9.59311 33.0903 10.1389C32.5444 10.6848 31.8726 10.9507 31.0608 10.9507C30.2491 10.9507 29.5633 10.6848 29.0175 10.1389Z" fill="white"/>
<path d="M44.9739 12.9381L42.8886 9.34118C43.9662 8.78135 44.694 7.68967 44.694 6.50002C44.694 5.5623 44.3721 4.77853 43.7143 4.12072C43.0565 3.46292 42.2727 3.14101 41.335 3.14101H37.4162V12.9381H39.6555V9.71907H40.7192L42.5667 12.9381H44.9739ZM41.335 5.24039C41.9508 5.24039 42.4547 5.78623 42.4547 6.50002C42.4547 7.21381 41.9508 7.75965 41.335 7.75965H39.6555V5.24039H41.335Z" fill="white"/>
<path d="M53.5847 12.9381L51.4993 9.34118C52.577 8.78135 53.3048 7.68967 53.3048 6.50002C53.3048 5.5623 52.9829 4.77853 52.3251 4.12072C51.6673 3.46292 50.8835 3.14101 49.9458 3.14101H46.0269V12.9381H48.2663V9.71907H49.3299L51.1774 12.9381H53.5847ZM49.9458 5.24039C50.5616 5.24039 51.0654 5.78623 51.0654 6.50002C51.0654 7.21381 50.5616 7.75965 49.9458 7.75965H48.2663V5.24039H49.9458Z" fill="white"/>
<path d="M63.3151 12.9381L59.9841 3.14101H57.1289L53.7979 12.9381H56.2472L56.737 11.3986H60.376L60.8658 12.9381H63.3151ZM58.5565 5.70226L59.7042 9.2992H57.4088L58.5565 5.70226Z" fill="white"/>
<path d="M71.7083 3.14101L69.049 7.49373L66.3898 3.14101H64.1505V12.9381H66.3898V7.2418L68.9231 11.3986H69.175L71.7083 7.2418V12.9381H73.9476V3.14101H71.7083Z" fill="white"/>
<path d="M84.3089 12.9381L80.9779 3.14101H78.1227L74.7917 12.9381H77.241L77.7309 11.3986H81.3698L81.8596 12.9381H84.3089ZM79.5503 5.70226L80.698 9.2992H78.4027L79.5503 5.70226Z" fill="white"/>
<path d="M88.3683 13.1341C89.4459 13.1341 90.3277 12.8681 90.9995 12.3363C91.6713 11.7905 92.0072 11.0627 92.0072 10.125C92.0072 9.32719 91.6853 8.68338 91.3354 8.30549C91.1674 8.10955 90.9155 7.9276 90.5796 7.75965C90.2577 7.5777 89.9778 7.45174 89.7679 7.38176L88.8581 7.08785C88.1443 6.87791 87.6685 6.68197 87.4305 6.50002C87.2066 6.31807 87.0946 6.10814 87.0946 5.87021C87.0946 5.46433 87.4725 5.12843 88.1443 5.12843C88.9981 5.12843 89.4879 5.52031 89.8378 6.26209L91.7273 5.15642C91.0135 3.71484 89.7539 2.94507 88.1443 2.94507C87.2486 2.94507 86.4788 3.21099 85.821 3.75683C85.1772 4.30267 84.8553 5.01646 84.8553 5.92619C84.8553 6.82193 85.1772 7.52172 85.751 7.98358C86.3529 8.43145 86.9127 8.68338 87.7384 8.90731C88.5222 9.11725 89.0541 9.31319 89.334 9.48114C89.6279 9.6351 89.7679 9.85903 89.7679 10.1529C89.7679 10.6848 89.32 10.9507 88.4382 10.9507C87.4585 10.9507 86.7727 10.5028 86.3808 9.59311L84.4494 10.7128C85.0093 12.2103 86.3669 13.1341 88.3683 13.1341Z" fill="white"/>
<path d="M80.4821 2.71733L81.8967 1.58496H79.7016L78.7261 2.71733H80.4821Z" fill="white"/>
</svg>
