<svg width="38" height="12" viewBox="0 0 38 12" fill="none" xmlns="http://www.w3.org/2000/svg">
<path d="M31.535 0H5.96502C2.67063 0 0 2.68629 0 6C0 9.31371 2.67063 12 5.96502 12H31.535C34.8294 12 37.5 9.31371 37.5 6C37.5 2.68629 34.8294 0 31.535 0Z" fill="#F3008A"/>
<path d="M7.07295 8.74506C6.35482 8.01631 6 7.11015 6 6.02764C6 4.94513 6.35482 4.03897 7.07295 3.32084C7.79108 2.60271 8.70786 2.22665 9.80099 2.22665C10.4421 2.22227 11.0735 2.38404 11.6335 2.6962C12.178 2.99191 12.6343 3.42664 12.9561 3.95611L11.3424 4.88246C11.0609 4.37254 10.4777 4.0496 9.80099 4.0496C9.5398 4.03984 9.27939 4.08373 9.03583 4.17856C8.79227 4.27339 8.57074 4.41714 8.38491 4.60094C8.03116 4.96532 7.85375 5.4338 7.85375 6.02764C7.85375 6.62148 8.03116 7.10059 8.38491 7.46496C8.73867 7.82934 9.21778 8.00568 9.80099 8.00568C10.4777 8.00568 11.0609 7.69336 11.3424 7.1622L12.9561 8.10023C12.3187 9.17212 11.1342 9.82863 9.80099 9.82863C8.70786 9.82863 7.78789 9.46425 7.07295 8.74506Z" fill="white"/>
<path d="M15.5548 7.87077H18.064V9.67672H13.6904V2.38281H15.5548V7.87077Z" fill="white"/>
<path d="M18.5576 2.38281H20.422V7.10059C20.422 7.71461 20.7651 8.01631 21.4418 8.01631C22.1185 8.01631 22.4627 7.71461 22.4627 7.10059V2.38281H24.326V7.27693C24.326 8.04818 24.0562 8.65795 23.5144 9.13069C22.9726 9.60342 22.2853 9.82863 21.4418 9.82863C20.5983 9.82863 19.9015 9.59917 19.3597 9.13069C18.8179 8.6622 18.5576 8.04818 18.5576 7.27693V2.38281Z" fill="white"/>
<path d="M31.0354 7.5372C31.0354 8.1831 30.8165 8.70576 30.3693 9.08926C29.9221 9.47276 29.3272 9.67247 28.5878 9.67247H25.5166V2.38281H28.3902C29.8477 2.38281 30.7953 3.17424 30.7953 4.4554C30.806 4.73305 30.7501 5.00923 30.6324 5.26091C30.5147 5.5126 30.3385 5.7325 30.1186 5.90229C30.7337 6.26773 31.0354 6.80845 31.0354 7.5372ZM27.3799 4.0496V5.19478H28.336C28.6696 5.19478 28.9298 4.98232 28.9298 4.62219C28.9321 4.54457 28.9181 4.46733 28.8887 4.39543C28.8594 4.32353 28.8154 4.25855 28.7595 4.20465C28.7036 4.15075 28.637 4.10911 28.5641 4.08241C28.4912 4.05571 28.4135 4.04454 28.336 4.0496H27.3799ZM28.5357 8.00569C28.6189 8.01153 28.7025 7.99984 28.7809 7.97137C28.8593 7.94289 28.9309 7.89827 28.9909 7.84039C29.051 7.78252 29.0983 7.71267 29.1297 7.63537C29.161 7.55807 29.1758 7.47505 29.1731 7.39167C29.1731 7.01667 28.9128 6.77764 28.5357 6.77764H27.3799V8.00569H28.5357Z" fill="white"/>
</svg>
