<svg width="70" height="20" viewBox="0 0 70 20" fill="none" xmlns="http://www.w3.org/2000/svg">
<path d="M37.2368 4.1956C40.6542 4.1956 43.1323 6.74339 43.1323 10.1754C43.1323 13.6075 40.6542 16.1552 37.2368 16.1552C36.4381 16.1669 35.6455 16.0146 34.9082 15.7075C34.1709 15.4005 33.5046 14.9453 32.9507 14.3703V19.9941H31.1443V4.44661H32.3874L32.7471 6.19872C33.303 5.55725 33.993 5.04542 34.7685 4.69932C35.5439 4.35322 36.386 4.18127 37.2352 4.1956H37.2368ZM37.1005 14.4097C39.5326 14.4097 41.3062 12.6051 41.3062 10.1754C41.3062 7.74576 39.5326 5.94115 37.1005 5.94115C34.6684 5.94115 32.8735 7.76217 32.8735 10.1754C32.8735 12.5887 34.6799 14.4097 37.1005 14.4097Z" fill="#F52337"/>
<path d="M56.4422 4.4466V15.9042H54.9462L54.7557 14.1685C53.6998 15.4022 52.1184 16.1552 50.2561 16.1552C46.865 16.1552 44.3213 13.5878 44.3213 10.1754C44.3213 6.76307 46.865 4.1956 50.2561 4.1956C52.1315 4.1956 53.7228 4.95518 54.7803 6.20364L55.0053 4.4466H56.4422ZM54.5981 10.1754C54.5981 7.7392 52.8245 5.94115 50.3924 5.94115C47.9603 5.94115 46.1654 7.7638 46.1654 10.1754C46.1654 12.587 47.9636 14.4097 50.3924 14.4097C52.8212 14.4097 54.5981 12.6133 54.5981 10.1754Z" fill="#F52337"/>
<path d="M69.5321 4.4466L64.0751 16.3783C62.8385 19.0918 61.7465 19.9876 59.5821 19.9876H58.4917V18.3585H59.4179C60.9517 18.3585 61.4936 17.8893 62.4165 15.9748L62.8287 15.1168L57.7264 4.44004H59.697L63.7746 13.112L67.614 4.44004L69.5321 4.4466Z" fill="#F52337"/>
<path d="M23.8218 8.88594V15.832H20.4241V9.38303C20.4241 7.98036 19.5406 7.32414 18.4535 7.32414C17.2087 7.32414 16.3482 8.04926 16.3482 9.65536V15.832H12.9505V-0.00585938H16.3482V5.58187C16.9591 4.74519 18.0922 4.20216 19.5866 4.20216C21.8709 4.20216 23.8218 5.83123 23.8218 8.88594Z" fill="#F52337"/>
<path d="M6.10589 4.1956C4.92202 4.1956 3.76473 4.54631 2.78037 5.20338C1.79602 5.86045 1.02881 6.79437 0.575758 7.88704C0.122709 8.97971 0.00417294 10.182 0.235135 11.342C0.466098 12.502 1.03619 13.5675 1.87331 14.4038C2.71044 15.2401 3.777 15.8096 4.93813 16.0403C6.09925 16.2711 7.30279 16.1526 8.39655 15.7001C9.49031 15.2475 10.4252 14.481 11.0829 13.4976C11.7406 12.5142 12.0917 11.3581 12.0917 10.1754C12.0917 8.58947 11.461 7.06848 10.3385 5.94705C9.21592 4.82561 7.69342 4.1956 6.10589 4.1956ZM6.10589 12.843C5.57771 12.8433 5.06129 12.6871 4.62196 12.3942C4.18263 12.1013 3.84013 11.6848 3.63778 11.1974C3.43543 10.71 3.38232 10.1736 3.48516 9.65601C3.588 9.13845 3.84219 8.66299 4.21555 8.28976C4.58892 7.91654 5.0647 7.66231 5.58272 7.55925C6.10073 7.45619 6.6377 7.50892 7.12571 7.71077C7.61372 7.91262 8.03085 8.25453 8.32432 8.69324C8.6178 9.13195 8.77445 9.64776 8.77445 10.1754C8.77445 10.8826 8.49335 11.5609 7.99294 12.0611C7.49254 12.5613 6.81379 12.8425 6.10589 12.843Z" fill="#F52337"/>
<path d="M24.5575 14.0045C24.5565 13.5795 24.6818 13.1637 24.9175 12.8099C25.1532 12.4561 25.4887 12.18 25.8815 12.0168C26.2743 11.8536 26.7067 11.8104 27.1241 11.8929C27.5414 11.9753 27.9249 12.1796 28.226 12.4799C28.527 12.7802 28.7321 13.163 28.8153 13.5798C28.8985 13.9966 28.8559 14.4287 28.6931 14.8214C28.5303 15.214 28.2546 15.5496 27.9007 15.7856C27.5469 16.0216 27.1309 16.1474 26.7055 16.147C26.1374 16.1436 25.5936 15.9169 25.1916 15.5159C24.7896 15.1149 24.5618 14.572 24.5575 14.0045Z" fill="#F52337"/>
<path d="M24.6708 5.86405V0.54373C24.6708 0.399276 24.7283 0.260738 24.8305 0.158594C24.9327 0.0564497 25.0714 -0.000932932 25.216 -0.000932932H28.1966C28.3412 -0.000932932 28.4799 0.0564497 28.5821 0.158594C28.6844 0.260738 28.7418 0.399276 28.7418 0.54373V5.86405C28.7435 5.88808 28.7435 5.9122 28.7418 5.93623L28.1309 10.5134C28.1134 10.6437 28.0492 10.7633 27.9501 10.8499C27.851 10.9365 27.7239 10.9842 27.5923 10.9842H25.8253C25.6936 10.9842 25.5665 10.9365 25.4674 10.8499C25.3684 10.7633 25.3041 10.6437 25.2866 10.5134L24.6757 5.93623C24.6724 5.91232 24.6708 5.88819 24.6708 5.86405Z" fill="#F52337"/>
</svg>
